<svg width="19" height="18" viewBox="0 0 19 18" fill="none" xmlns="http://www.w3.org/2000/svg">
<path fill-rule="evenodd" clip-rule="evenodd" d="M7.50843 2.00028H5.82843C5.34139 0.622735 3.93276 -0.203591 2.49269 0.0434856C1.05263 0.290562 0 1.53917 0 3.00028C0 4.46139 1.05263 5.71 2.49269 5.95708C3.93276 6.20415 5.34139 5.37783 5.82843 4.00028H7.50843C7.78457 4.00028 8.00843 3.77642 8.00843 3.50028V2.50028C8.00843 2.22414 7.78457 2.00028 7.50843 2.00028ZM3.00843 4.00028C2.45614 4.00028 2.00843 3.55257 2.00843 3.00028C2.00843 2.448 2.45614 2.00028 3.00843 2.00028C3.56071 2.00028 4.00843 2.448 4.00843 3.00028C4.00843 3.55257 3.56071 4.00028 3.00843 4.00028ZM2.67843 8.23028C1.53806 8.63294 0.641082 9.52991 0.238427 10.6703C0.204426 10.7397 0.204426 10.8209 0.238427 10.8903C0.286666 10.9586 0.364811 10.9995 0.448427 11.0003H2.00843C2.16346 11.002 2.30937 10.9272 2.39843 10.8003C2.51633 10.6524 2.6505 10.5182 2.79843 10.4003C2.93212 10.3115 3.0113 10.1607 3.00843 10.0003V8.47028C3.00766 8.38667 2.96673 8.30852 2.89843 8.26028C2.8338 8.21648 2.75242 8.20538 2.67843 8.23028ZM2.40843 13.2303C2.32449 13.0889 2.17281 13.0017 2.00843 13.0003H0.478427C0.394811 13.001 0.316666 13.042 0.268427 13.1103C0.234426 13.1797 0.234426 13.2609 0.268427 13.3303C0.671082 14.4707 1.56806 15.3676 2.70843 15.7703C2.77782 15.8043 2.85904 15.8043 2.92843 15.7703C2.99484 15.7095 3.0251 15.6187 3.00843 15.5303V14.0003C3.01017 13.8453 2.93534 13.6993 2.80843 13.6103C2.65994 13.4893 2.52574 13.3517 2.40843 13.2003V13.2303ZM7.50843 14.0303H5.50843C5.23228 14.0303 5.00843 14.2541 5.00843 14.5303V15.5303C5.00843 15.8064 5.23228 16.0303 5.50843 16.0303H7.50843C7.78457 16.0303 8.00843 15.8064 8.00843 15.5303V14.5303C8.01671 14.3926 7.96771 14.2575 7.87302 14.1572C7.77834 14.0568 7.6464 14 7.50843 14.0003V14.0303ZM7.50843 8.03028H5.50843C5.23228 8.03028 5.00843 8.25414 5.00843 8.53028V9.53028C5.00843 9.80642 5.23228 10.0303 5.50843 10.0303H7.50843C7.78457 10.0303 8.00843 9.80642 8.00843 9.53028V8.53028C8.01671 8.39256 7.96771 8.25753 7.87302 8.15717C7.77834 8.05681 7.6464 8.00003 7.50843 8.00028V8.03028ZM10.5084 4.03028H12.5084C12.7846 4.03028 13.0084 3.80642 13.0084 3.53028V2.53028C13.0084 2.25414 12.7846 2.03028 12.5084 2.03028H10.5084C10.2323 2.03028 10.0084 2.25414 10.0084 2.53028V3.53028C10.0243 3.79464 10.2436 4.00076 10.5084 4.00028V4.03028ZM10.5084 10.0303H12.5084C12.7846 10.0303 13.0084 9.80642 13.0084 9.53028V8.53028C13.0084 8.25414 12.7846 8.03028 12.5084 8.03028H10.5084C10.2323 8.03028 10.0084 8.25414 10.0084 8.53028V9.53028C10.0243 9.79464 10.2436 10.0008 10.5084 10.0003V10.0303ZM15.3384 9.80028C16.4788 9.39763 17.3758 8.50065 17.7784 7.36028C17.8124 7.29089 17.8124 7.20967 17.7784 7.14028C17.7302 7.07198 17.652 7.03104 17.5684 7.03028H16.0084C15.8534 7.02854 15.7075 7.10337 15.6184 7.23028C15.5005 7.3782 15.3664 7.51238 15.2184 7.63028C15.0934 7.71306 15.0154 7.85051 15.0084 8.00028V9.54028C15.0092 9.6239 15.0501 9.70204 15.1184 9.75028C15.1847 9.79074 15.266 9.79813 15.3384 9.77028V9.80028ZM15.6084 4.80028C15.6995 4.93018 15.8499 5.00538 16.0084 5.00028H17.5484C17.632 4.99952 17.7102 4.95858 17.7584 4.89028C17.7924 4.82089 17.7924 4.73967 17.7584 4.67028C17.3558 3.52991 16.4588 2.63294 15.3184 2.23028C15.249 2.19628 15.1678 2.19628 15.0984 2.23028C15.0301 2.27852 14.9892 2.35667 14.9884 2.44028V4.00028C14.9867 4.15531 15.0615 4.30123 15.1884 4.39028C15.3439 4.51012 15.4849 4.64772 15.6084 4.80028ZM15.0084 12.0003C13.7402 12.0038 12.6112 12.8046 12.1884 14.0003H10.5084C10.2323 14.0003 10.0084 14.2241 10.0084 14.5003V15.5003C10.0084 15.7764 10.2323 16.0003 10.5084 16.0003H12.1884C12.6973 17.4397 14.2061 18.2673 15.6935 17.923C17.1808 17.5786 18.1724 16.1722 17.997 14.6556C17.8216 13.139 16.5351 11.996 15.0084 12.0003ZM15.0084 16.0003C14.4561 16.0003 14.0084 15.5526 14.0084 15.0003C14.0084 14.448 14.4561 14.0003 15.0084 14.0003C15.5607 14.0003 16.0084 14.448 16.0084 15.0003C16.0084 15.5526 15.5607 16.0003 15.0084 16.0003Z" />
</svg>
