<svg width="19" height="19" viewBox="0 0 19 19" fill="none" xmlns="http://www.w3.org/2000/svg">
<path d="M4.99072 0.92981C2.78172 0.92981 0.990723 2.72081 0.990723 4.92981V14.9298C0.990723 17.1388 2.78172 18.9298 4.99072 18.9298H14.9907C17.1997 18.9298 18.9907 17.1388 18.9907 14.9298V4.92981C18.9907 2.72081 17.1997 0.92981 14.9907 0.92981H4.99072ZM9.99072 4.92981C10.5427 4.92981 10.9907 5.37781 10.9907 5.92981V8.92981H13.9907C14.5427 8.92981 14.9907 9.37781 14.9907 9.92981C14.9907 10.4818 14.5427 10.9298 13.9907 10.9298H10.9907V13.9298C10.9907 14.4818 10.5427 14.9298 9.99072 14.9298C9.43872 14.9298 8.99072 14.4818 8.99072 13.9298V10.9298H5.99072C5.43872 10.9298 4.99072 10.4818 4.99072 9.92981C4.99072 9.37781 5.43872 8.92981 5.99072 8.92981H8.99072V5.92981C8.99072 5.37781 9.43872 4.92981 9.99072 4.92981Z"/>
</svg>
