<svg width="20" height="22" viewBox="0 0 20 22" fill="none" xmlns="http://www.w3.org/2000/svg">
<path d="M11.5 14.5C11.5 15.3284 10.8284 16 10 16C9.17157 16 8.5 15.3284 8.5 14.5C8.5 13.6716 9.17157 13 10 13C10.8284 13 11.5 13.6716 11.5 14.5Z"/>
<path d="M9.5868 6C9.00176 6 8.54167 6.50003 8.59025 7.08305L8.96179 11.5415C8.98339 11.8007 9.20002 12 9.46007 12H10.5399C10.8 12 11.0166 11.8007 11.0382 11.5415L11.4097 7.08305C11.4583 6.50003 10.9982 6 10.4132 6H9.5868Z" />
<path fill-rule="evenodd" clip-rule="evenodd" d="M11.9953 2.12994C11.9984 2.08951 12 2.04625 12 2C12 0.89543 11.1046 0 10 0C8.89543 0 8 0.89543 8 2C8 2.04625 8.00157 2.0895 8.00466 2.12992C6.44082 2.35228 5.24771 2.85867 4.35186 3.63844C3.11014 4.71927 2.60782 6.1818 2.33149 7.60064C2.193 8.31171 2.1044 9.05212 2.0201 9.76032L2.01699 9.78642C1.93229 10.498 1.85098 11.1812 1.72784 11.8466C1.47894 13.1918 1.07743 14.3488 0.254978 15.2674C0.0517103 15.4944 -0.0369407 15.8018 0.0141811 16.1022C0.0653028 16.4026 0.250618 16.6633 0.51754 16.8103C2.14851 17.7087 4.0543 18.3241 6.05619 18.6685C6.06326 18.7102 6.07098 18.7518 6.07936 18.7932C6.19036 19.3419 6.41547 19.8619 6.74094 20.3193C7.10694 20.8336 7.58947 21.2539 8.14907 21.546C8.70867 21.8381 9.32945 21.9936 9.96066 21.9998C10.5919 22.006 11.2156 21.8627 11.7808 21.5817C12.346 21.3006 12.8367 20.8898 13.2128 20.3828C13.5471 19.9319 13.7824 19.4164 13.9042 18.87C13.919 18.8033 13.9322 18.7361 13.9437 18.6686C15.9456 18.3241 17.8515 17.7087 19.4825 16.8103C19.7494 16.6633 19.9347 16.4026 19.9858 16.1022C20.037 15.8018 19.9483 15.4944 19.745 15.2674C18.9226 14.3488 18.5211 13.1918 18.2721 11.8466C18.149 11.1812 18.0677 10.498 17.983 9.78637L17.9799 9.76031C17.8955 9.05211 17.8069 8.31169 17.6684 7.60062C17.3921 6.18178 16.8897 4.71927 15.648 3.63844C14.7522 2.85869 13.5591 2.3523 11.9953 2.12994ZM11.7681 18.9346C11.18 18.9783 10.5892 19 10 19C9.41074 19 8.8199 18.9783 8.23171 18.9346C8.27282 19.0123 8.31913 19.0875 8.37043 19.1596C8.55343 19.4168 8.79469 19.627 9.0745 19.773C9.3543 19.919 9.66469 19.9968 9.98029 19.9999C10.2959 20.003 10.6078 19.9313 10.8904 19.7908C11.173 19.6503 11.4183 19.4449 11.6063 19.1914C11.6669 19.1098 11.7209 19.0239 11.7681 18.9346ZM10 17C7.31721 17 4.67257 16.5102 2.51162 15.5643C3.1577 14.4976 3.48689 13.3323 3.69446 12.2105C3.82948 11.4808 3.91737 10.7422 3.99973 10.05L4.00608 9.99672C4.09182 9.27643 4.17259 8.60947 4.29461 7.98297C4.53928 6.72667 4.92247 5.79329 5.66496 5.14701C6.40522 4.50267 7.67104 4 9.99995 4C12.3288 4 13.5946 4.50267 14.3349 5.14701C15.0774 5.7933 15.4606 6.72669 15.7053 7.98299C15.8273 8.60948 15.9081 9.27645 15.9939 9.99674L16.0002 10.05C16.0826 10.7422 16.1705 11.4808 16.3055 12.2106C16.5131 13.3323 16.8423 14.4976 17.4884 15.5643C15.3274 16.5102 12.6828 17 10 17Z" />
</svg>
