<svg width="20" height="20" viewBox="0 0 20 20" fill="none" xmlns="http://www.w3.org/2000/svg">
<path d="M10 0C4.49 0 0 4.49 0 10C0 15.51 4.49 20 10 20C15.51 20 20 15.51 20 10C20 4.49 15.51 0 10 0ZM9.8 4.77C11.58 4.77 13.02 6.21 13.02 7.99C13.02 9.76 11.58 11.21 9.8 11.21C8.03 11.21 6.59 9.76 6.59 7.99C6.59 6.21 8.03 4.77 9.8 4.77ZM15.93 16.08C15.48 16.53 14.97 16.92 14.43 17.25C13.14 18.05 11.62 18.5 10 18.5C8.38 18.5 6.86001 18.05 5.57001 17.25C5.03001 16.92 4.52001 16.53 4.07001 16.08V15.89C4.07001 13.84 5.74 12.17 7.78 12.17H12.22C14.26 12.17 15.93 13.84 15.93 15.89V16.08Z" />
</svg>
