<svg width="19" height="17" viewBox="0 0 19 17" fill="none" xmlns="http://www.w3.org/2000/svg">
<path d="M7.33341 16.5001C6.87508 16.5001 6.48272 16.3369 6.15633 16.0105C5.82994 15.6841 5.66675 15.2917 5.66675 14.8334V6.35423C5.66675 6.132 5.71189 5.9202 5.80216 5.71881C5.89244 5.51742 6.01397 5.34034 6.16675 5.18756L10.6876 0.68756C10.8959 0.493115 11.1424 0.375059 11.4272 0.333393C11.7119 0.291726 11.9862 0.340337 12.2501 0.479226C12.514 0.618115 12.7049 0.812559 12.823 1.06256C12.9411 1.31256 12.9654 1.5695 12.8959 1.83339L11.9584 5.66673H16.5001C16.9445 5.66673 17.3334 5.83339 17.6667 6.16673C18.0001 6.50006 18.1667 6.88895 18.1667 7.33339V9.00006C18.1667 9.09728 18.1563 9.20145 18.1355 9.31256C18.1147 9.42367 18.0834 9.52784 18.0417 9.62506L15.5417 15.5001C15.4167 15.7778 15.2084 16.0139 14.9167 16.2084C14.6251 16.4028 14.3195 16.5001 14.0001 16.5001H7.33341ZM2.33341 16.5001C1.87508 16.5001 1.48272 16.3369 1.15633 16.0105C0.829943 15.6841 0.666748 15.2917 0.666748 14.8334V7.33339C0.666748 6.87506 0.829943 6.4827 1.15633 6.15631C1.48272 5.82992 1.87508 5.66673 2.33341 5.66673C2.79175 5.66673 3.18411 5.82992 3.5105 6.15631C3.83689 6.4827 4.00008 6.87506 4.00008 7.33339V14.8334C4.00008 15.2917 3.83689 15.6841 3.5105 16.0105C3.18411 16.3369 2.79175 16.5001 2.33341 16.5001Z" fill="#FF7B1C"/>
</svg>
