<svg width="19" height="20" viewBox="0 0 19 20" fill="none" xmlns="http://www.w3.org/2000/svg">
<path fill-rule="evenodd" clip-rule="evenodd" d="M18.3702 12.7101L17.5702 12.0501C17.0851 11.6474 16.8183 11.0397 16.8502 10.4101C16.8502 10.2701 16.8502 10.1201 16.8502 9.98008C16.8502 9.84008 16.8502 9.69008 16.8502 9.55008C16.8183 8.9205 17.0851 8.31273 17.5702 7.91008L18.3702 7.25008C18.7498 6.94227 18.8513 6.40519 18.6102 5.98008L17.4502 3.98008C17.2043 3.56251 16.6944 3.38131 16.2402 3.55008L15.2402 3.91008C14.6501 4.13064 13.9905 4.06024 13.4602 3.72008C13.2251 3.55768 12.9777 3.41391 12.7202 3.29008C12.1575 3.00151 11.7644 2.46382 11.6602 1.84008L11.4902 0.840084C11.411 0.351026 10.9856 -0.00629203 10.4902 8.39916e-05H8.1902C7.6948 -0.00629203 7.26942 0.351026 7.1902 0.840084L7.0202 1.84008C6.92468 2.45594 6.54754 2.99207 6.0002 3.29008C5.7427 3.41391 5.49528 3.55768 5.2602 3.72008C4.72991 4.06024 4.07034 4.13064 3.4802 3.91008L2.4802 3.55008C2.03175 3.39234 1.53423 3.57212 1.2902 3.98008L0.130196 5.98008C-0.110878 6.40519 -0.00938345 6.94227 0.370197 7.25008L1.1702 7.91008C1.65525 8.31273 1.92207 8.9205 1.8902 9.55008C1.8902 9.69008 1.8902 9.84008 1.8902 9.98008C1.8902 10.1201 1.8902 10.2701 1.8902 10.4101C1.92207 11.0397 1.65525 11.6474 1.1702 12.0501L0.370197 12.7101C-0.00938345 13.0179 -0.110878 13.555 0.130196 13.9801L1.2902 15.9801C1.53607 16.3977 2.04595 16.5789 2.5002 16.4101L3.5002 16.0501C4.09034 15.8295 4.74991 15.8999 5.2802 16.2401C5.51528 16.4025 5.7627 16.5463 6.0202 16.6701C6.5829 16.9587 6.97597 17.4964 7.0802 18.1201L7.2502 19.1201C7.32942 19.6091 7.7548 19.9665 8.2502 19.9601H10.5502C11.0456 19.9665 11.471 19.6091 11.5502 19.1201L11.7202 18.1201C11.8244 17.4964 12.2175 16.9587 12.7802 16.6701C13.0377 16.5463 13.2851 16.4025 13.5202 16.2401C14.0505 15.8999 14.7101 15.8295 15.3002 16.0501L16.3002 16.4101C16.7368 16.5466 17.2103 16.3696 17.4502 15.9801L18.6102 13.9801C18.8513 13.555 18.7498 13.0179 18.3702 12.7101ZM9.3702 12.9801C7.71334 12.9801 6.3702 11.6369 6.3702 9.98008C6.3702 8.32323 7.71334 6.98008 9.3702 6.98008C11.0271 6.98008 12.3702 8.32323 12.3702 9.98008C12.3702 10.7757 12.0541 11.5388 11.4915 12.1014C10.9289 12.664 10.1658 12.9801 9.3702 12.9801Z" fill="#FF7B1C"/>
</svg>
