<svg width="44" height="42" viewBox="0 0 44 42" fill="none" xmlns="http://www.w3.org/2000/svg">
<path d="M15.4974 0.364014C14.9232 0.364014 14.4141 0.567693 14.0067 0.97286L10.2844 4.69735C9.66252 4.69735 8.99737 4.69735 8.99737 4.69735C4.21119 4.69735 0.330688 8.57785 0.330688 13.364V32.864C0.330688 37.6502 4.21119 41.5307 8.99737 41.5307H34.9974C39.7836 41.5307 43.6641 37.6502 43.6641 32.864V13.364C43.6641 8.57785 39.7836 4.69735 34.9974 4.69735H33.7797L30.0552 0.97286C29.6479 0.567693 29.0716 0.364014 28.4974 0.364014H15.4974ZM16.4464 4.69735H27.6177L31.3401 8.42183C31.7474 8.827 32.2566 9.03068 32.8307 9.03068H34.9974C37.3916 9.03068 39.3307 10.9698 39.3307 13.364V32.864C39.3307 35.2582 37.3916 37.1973 34.9974 37.1973H8.99737C6.6032 37.1973 4.66403 35.2582 4.66403 32.864V13.364C4.66403 10.9698 6.6032 9.03068 8.99737 9.03068H11.164C11.7382 9.03068 12.3145 8.827 12.7219 8.42183L16.4464 4.69735ZM21.9974 11.1973C16.0152 11.1973 11.164 16.0485 11.164 22.0307C11.164 28.0128 16.0152 32.864 21.9974 32.864C27.9796 32.864 32.8307 28.0128 32.8307 22.0307C32.8307 16.0485 27.9796 11.1973 21.9974 11.1973ZM34.9974 11.1973C33.8014 11.1973 32.8307 12.168 32.8307 13.364C32.8307 14.56 33.8014 15.5307 34.9974 15.5307C36.1934 15.5307 37.1641 14.56 37.1641 13.364C37.1641 12.168 36.1934 11.1973 34.9974 11.1973ZM21.9974 15.5307C25.5876 15.5307 28.4974 18.4405 28.4974 22.0307C28.4974 25.6208 25.5876 28.5307 21.9974 28.5307C18.4072 28.5307 15.4974 25.6208 15.4974 22.0307C15.4974 18.4405 18.4072 15.5307 21.9974 15.5307Z" fill="#FF7B1C"/>
</svg>
