<svg width="44" height="32" viewBox="0 0 44 32" fill="none" xmlns="http://www.w3.org/2000/svg">
<path d="M8.99784 0.843903C4.21168 0.843903 0.331177 4.7244 0.331177 9.51057V22.5106C0.331177 27.2967 4.21168 31.1772 8.99784 31.1772H24.1645C28.9507 31.1772 32.8312 27.2967 32.8312 22.5106V21.2929L39.94 28.4017C41.305 29.7667 43.6645 28.7744 43.6645 26.8439V5.17724C43.6645 4.21307 43.0643 3.45909 42.3103 3.14493C41.5563 2.83293 40.6225 2.93692 39.94 3.61942C39.0517 4.50775 35.7237 7.83576 32.8312 10.7283V9.51057C32.8312 4.7244 28.9507 0.843903 24.1645 0.843903H8.99784ZM8.99784 5.17724H24.1645C26.5587 5.17724 28.4978 7.1164 28.4978 9.51057V16.0106V22.5106C28.4978 24.9047 26.5587 26.8439 24.1645 26.8439H8.99784C6.60368 26.8439 4.66451 24.9047 4.66451 22.5106V9.51057C4.66451 7.1164 6.60368 5.17724 8.99784 5.17724ZM39.3312 10.4595V21.5616L33.7802 16.0106C35.3272 14.4614 37.0713 12.7172 39.3312 10.4595Z" fill="#FF7B1C"/>
</svg>
