<svg width="28" height="28" viewBox="0 0 28 28" fill="none" xmlns="http://www.w3.org/2000/svg">
<circle cx="14" cy="14" r="14" fill="#FF7B1C"/>
<mask id="mask0_3914_17738" style="mask-type:alpha" maskUnits="userSpaceOnUse" x="6" y="6" width="16" height="16">
<rect x="6" y="6" width="16" height="16" fill="#D9D9D9"/>
</mask>
<g mask="url(#mask0_3914_17738)">
<path d="M13.9997 17.6667C14.833 17.6667 15.5413 17.375 16.1247 16.7917C16.708 16.2083 16.9997 15.5 16.9997 14.6667C16.9997 13.8333 16.708 13.125 16.1247 12.5417C15.5413 11.9583 14.833 11.6667 13.9997 11.6667C13.1663 11.6667 12.458 11.9583 11.8747 12.5417C11.2913 13.125 10.9997 13.8333 10.9997 14.6667C10.9997 15.5 11.2913 16.2083 11.8747 16.7917C12.458 17.375 13.1663 17.6667 13.9997 17.6667ZM8.66634 20C8.29967 20 7.98579 19.8694 7.72467 19.6083C7.46356 19.3472 7.33301 19.0333 7.33301 18.6667V10.6667C7.33301 10.3 7.46356 9.98611 7.72467 9.725C7.98579 9.46389 8.29967 9.33333 8.66634 9.33333H10.7663L11.5997 8.43333C11.7219 8.28889 11.8691 8.18056 12.0413 8.10833C12.2136 8.03611 12.3941 8 12.583 8H15.4163C15.6052 8 15.7858 8.03611 15.958 8.10833C16.1302 8.18056 16.2775 8.28889 16.3997 8.43333L17.233 9.33333H19.333C19.6997 9.33333 20.0136 9.46389 20.2747 9.725C20.5358 9.98611 20.6663 10.3 20.6663 10.6667V18.6667C20.6663 19.0333 20.5358 19.3472 20.2747 19.6083C20.0136 19.8694 19.6997 20 19.333 20H8.66634ZM19.333 18.6667V10.6667H8.66634V18.6667H19.333Z" fill="white"/>
</g>
</svg>
