<svg width="16" height="16" viewBox="0 0 16 16" fill="none" xmlns="http://www.w3.org/2000/svg">
<mask id="mask0_3914_17774" style="mask-type:alpha" maskUnits="userSpaceOnUse" x="0" y="0" width="16" height="16">
<rect width="16" height="16" fill="#D9D9D9"/>
</mask>
<g mask="url(#mask0_3914_17774)">
<path d="M7.99967 11.6667C8.83301 11.6667 9.54134 11.375 10.1247 10.7917C10.708 10.2083 10.9997 9.5 10.9997 8.66667C10.9997 7.83333 10.708 7.125 10.1247 6.54167C9.54134 5.95833 8.83301 5.66667 7.99967 5.66667C7.16634 5.66667 6.45801 5.95833 5.87467 6.54167C5.29134 7.125 4.99967 7.83333 4.99967 8.66667C4.99967 9.5 5.29134 10.2083 5.87467 10.7917C6.45801 11.375 7.16634 11.6667 7.99967 11.6667ZM2.66634 14C2.29967 14 1.98579 13.8694 1.72467 13.6083C1.46356 13.3472 1.33301 13.0333 1.33301 12.6667V4.66667C1.33301 4.3 1.46356 3.98611 1.72467 3.725C1.98579 3.46389 2.29967 3.33333 2.66634 3.33333H4.76634L5.59967 2.43333C5.7219 2.28889 5.86912 2.18056 6.04134 2.10833C6.21356 2.03611 6.39412 2 6.58301 2H9.41634C9.60523 2 9.78578 2.03611 9.95801 2.10833C10.1302 2.18056 10.2775 2.28889 10.3997 2.43333L11.233 3.33333H13.333C13.6997 3.33333 14.0136 3.46389 14.2747 3.725C14.5358 3.98611 14.6663 4.3 14.6663 4.66667V12.6667C14.6663 13.0333 14.5358 13.3472 14.2747 13.6083C14.0136 13.8694 13.6997 14 13.333 14H2.66634ZM13.333 12.6667V4.66667H2.66634V12.6667H13.333Z" fill="white"/>
</g>
</svg>
