<svg width="22" height="20" viewBox="0 0 22 20" fill="none" xmlns="http://www.w3.org/2000/svg">
<path d="M15.1 10.3001L13.65 8.8501C13.8 8.06676 13.575 7.33343 12.975 6.6501C12.375 5.96676 11.6 5.7001 10.65 5.8501L9.19999 4.4001C9.48332 4.26676 9.77082 4.16676 10.0625 4.1001C10.3542 4.03343 10.6667 4.0001 11 4.0001C12.25 4.0001 13.3125 4.4376 14.1875 5.3126C15.0625 6.1876 15.5 7.2501 15.5 8.5001C15.5 8.83343 15.4667 9.14593 15.4 9.4376C15.3333 9.72927 15.2333 10.0168 15.1 10.3001ZM18.3 13.4501L16.85 12.0501C17.4833 11.5668 18.0458 11.0376 18.5375 10.4626C19.0292 9.8876 19.45 9.23343 19.8 8.5001C18.9667 6.81676 17.7708 5.47926 16.2125 4.4876C14.6542 3.49593 12.9167 3.0001 11 3.0001C10.5167 3.0001 10.0417 3.03343 9.57499 3.1001C9.10832 3.16676 8.64999 3.26676 8.19999 3.4001L6.64999 1.8501C7.33332 1.56676 8.03332 1.35426 8.74999 1.2126C9.46665 1.07093 10.2167 1.0001 11 1.0001C13.3833 1.0001 15.525 1.62926 17.425 2.8876C19.325 4.14593 20.75 5.78343 21.7 7.8001C21.75 7.88343 21.7833 7.9876 21.8 8.1126C21.8167 8.2376 21.825 8.36677 21.825 8.5001C21.825 8.63343 21.8125 8.7626 21.7875 8.8876C21.7625 9.0126 21.7333 9.11677 21.7 9.2001C21.3167 10.0501 20.8375 10.8334 20.2625 11.5501C19.6875 12.2668 19.0333 12.9001 18.3 13.4501ZM18.1 18.9001L14.6 15.4501C14.0167 15.6334 13.4292 15.7709 12.8375 15.8626C12.2458 15.9543 11.6333 16.0001 11 16.0001C8.61665 16.0001 6.47499 15.3709 4.57499 14.1126C2.67499 12.8543 1.24999 11.2168 0.299988 9.2001C0.249988 9.11677 0.216654 9.0126 0.199988 8.8876C0.183321 8.7626 0.174988 8.63343 0.174988 8.5001C0.174988 8.36677 0.183321 8.24176 0.199988 8.1251C0.216654 8.00843 0.249988 7.90843 0.299988 7.8251C0.649988 7.0751 1.06665 6.38343 1.54999 5.7501C2.03332 5.11676 2.56665 4.53343 3.14999 4.0001L1.07499 1.9001C0.891654 1.71676 0.799988 1.4876 0.799988 1.2126C0.799988 0.937598 0.899988 0.700098 1.09999 0.500098C1.28332 0.316764 1.51665 0.225098 1.79999 0.225098C2.08332 0.225098 2.31665 0.316764 2.49999 0.500098L19.5 17.5001C19.6833 17.6834 19.7792 17.9126 19.7875 18.1876C19.7958 18.4626 19.7 18.7001 19.5 18.9001C19.3167 19.0834 19.0833 19.1751 18.8 19.1751C18.5167 19.1751 18.2833 19.0834 18.1 18.9001ZM4.54999 5.4001C4.06665 5.83343 3.62499 6.30843 3.22499 6.8251C2.82499 7.34176 2.48332 7.9001 2.19999 8.5001C3.03332 10.1834 4.22915 11.5209 5.78749 12.5126C7.34582 13.5043 9.08332 14.0001 11 14.0001C11.3333 14.0001 11.6583 13.9793 11.975 13.9376C12.2917 13.8959 12.6167 13.8501 12.95 13.8001L12.05 12.8501C11.8667 12.9001 11.6917 12.9376 11.525 12.9626C11.3583 12.9876 11.1833 13.0001 11 13.0001C9.74999 13.0001 8.68749 12.5626 7.81249 11.6876C6.93749 10.8126 6.49999 9.7501 6.49999 8.5001C6.49999 8.31676 6.51249 8.14176 6.53749 7.9751C6.56249 7.80843 6.59999 7.63343 6.64999 7.4501L4.54999 5.4001Z" fill="#6C6E76"/>
</svg>
