<svg width="14" height="4" viewBox="0 0 14 4" fill="none" xmlns="http://www.w3.org/2000/svg">
<path d="M3 2.00008C3 2.73646 2.40305 3.33341 1.66667 3.33341C0.930286 3.33341 0.333332 2.73646 0.333332 2.00008C0.333332 1.2637 0.930286 0.666748 1.66667 0.666748C2.40305 0.666748 3 1.2637 3 2.00008Z" fill="black"/>
<path d="M8.33333 2.00008C8.33333 2.73646 7.73638 3.33341 7 3.33341C6.26362 3.33341 5.66667 2.73646 5.66667 2.00008C5.66667 1.2637 6.26362 0.666748 7 0.666748C7.73638 0.666748 8.33333 1.2637 8.33333 2.00008Z" fill="black"/>
<path d="M12.3333 3.33341C13.0697 3.33341 13.6667 2.73646 13.6667 2.00008C13.6667 1.2637 13.0697 0.666748 12.3333 0.666748C11.597 0.666748 11 1.2637 11 2.00008C11 2.73646 11.597 3.33341 12.3333 3.33341Z" fill="black"/>
</svg>
