<svg width="45" height="42" viewBox="0 0 45 42" fill="none" xmlns="http://www.w3.org/2000/svg">
<path d="M20.5 42C17.7333 42 15.1333 41.475 12.7 40.425C10.2667 39.375 8.15 37.95 6.35 36.15C4.55 34.35 3.125 32.2333 2.075 29.8C1.025 27.3667 0.5 24.7667 0.5 22C0.5 19.2333 1.025 16.6333 2.075 14.2C3.125 11.7667 4.55 9.65 6.35 7.85C8.15 6.05 10.2667 4.625 12.7 3.575C15.1333 2.525 17.7333 2 20.5 2C22 2 23.4583 2.15833 24.875 2.475C26.2917 2.79167 27.6333 3.25 28.9 3.85C28.7667 4.18333 28.6667 4.53333 28.6 4.9C28.5333 5.26667 28.5 5.63333 28.5 6C28.5 6.46667 28.55 6.90833 28.65 7.325C28.75 7.74167 28.8833 8.13333 29.05 8.5C27.8167 7.73333 26.4833 7.125 25.05 6.675C23.6167 6.225 22.1 6 20.5 6C16.0667 6 12.2917 7.55833 9.175 10.675C6.05833 13.7917 4.5 17.5667 4.5 22C4.5 26.4333 6.05833 30.2083 9.175 33.325C12.2917 36.4417 16.0667 38 20.5 38C24.9333 38 28.7083 36.4417 31.825 33.325C34.9417 30.2083 36.5 26.4333 36.5 22C36.5 20.6667 36.3417 19.3833 36.025 18.15C35.7083 16.9167 35.2667 15.75 34.7 14.65C35.2333 15.0833 35.8167 15.4167 36.45 15.65C37.0833 15.8833 37.7667 16 38.5 16C38.6667 16 38.8417 15.9917 39.025 15.975C39.2083 15.9583 39.3833 15.9333 39.55 15.9C39.85 16.8667 40.0833 17.8583 40.25 18.875C40.4167 19.8917 40.5 20.9333 40.5 22C40.5 24.7667 39.975 27.3667 38.925 29.8C37.875 32.2333 36.45 34.35 34.65 36.15C32.85 37.95 30.7333 39.375 28.3 40.425C25.8667 41.475 23.2667 42 20.5 42ZM27.5 20C28.3667 20 29.0833 19.7167 29.65 19.15C30.2167 18.5833 30.5 17.8667 30.5 17C30.5 16.1333 30.2167 15.4167 29.65 14.85C29.0833 14.2833 28.3667 14 27.5 14C26.6333 14 25.9167 14.2833 25.35 14.85C24.7833 15.4167 24.5 16.1333 24.5 17C24.5 17.8667 24.7833 18.5833 25.35 19.15C25.9167 19.7167 26.6333 20 27.5 20ZM13.5 20C14.3667 20 15.0833 19.7167 15.65 19.15C16.2167 18.5833 16.5 17.8667 16.5 17C16.5 16.1333 16.2167 15.4167 15.65 14.85C15.0833 14.2833 14.3667 14 13.5 14C12.6333 14 11.9167 14.2833 11.35 14.85C10.7833 15.4167 10.5 16.1333 10.5 17C10.5 17.8667 10.7833 18.5833 11.35 19.15C11.9167 19.7167 12.6333 20 13.5 20ZM20.5 33C22.8667 33 24.9583 32.35 26.775 31.05C28.5917 29.75 29.9 28.0667 30.7 26H10.3C11.1 28.0667 12.4083 29.75 14.225 31.05C16.0417 32.35 18.1333 33 20.5 33ZM36.5 8H34.5C33.9333 8 33.4583 7.80833 33.075 7.425C32.6917 7.04167 32.5 6.56667 32.5 6C32.5 5.43333 32.6917 4.95833 33.075 4.575C33.4583 4.19167 33.9333 4 34.5 4H36.5V2C36.5 1.43333 36.6917 0.958333 37.075 0.575C37.4583 0.191667 37.9333 0 38.5 0C39.0667 0 39.5417 0.191667 39.925 0.575C40.3083 0.958333 40.5 1.43333 40.5 2V4H42.5C43.0667 4 43.5417 4.19167 43.925 4.575C44.3083 4.95833 44.5 5.43333 44.5 6C44.5 6.56667 44.3083 7.04167 43.925 7.425C43.5417 7.80833 43.0667 8 42.5 8H40.5V10C40.5 10.5667 40.3083 11.0417 39.925 11.425C39.5417 11.8083 39.0667 12 38.5 12C37.9333 12 37.4583 11.8083 37.075 11.425C36.6917 11.0417 36.5 10.5667 36.5 10V8Z" fill="#6C6E76"/>
</svg>
