<svg width="11" height="12" viewBox="0 0 11 12" fill="none" xmlns="http://www.w3.org/2000/svg">
<path d="M5.50016 7.16659L1.41683 11.2499C1.26405 11.4027 1.06961 11.4791 0.833496 11.4791C0.597385 11.4791 0.402941 11.4027 0.250163 11.2499C0.097385 11.0971 0.0209961 10.9027 0.0209961 10.6666C0.0209961 10.4305 0.097385 10.236 0.250163 10.0833L4.3335 5.99992L0.250163 1.91659C0.097385 1.76381 0.0209961 1.56936 0.0209961 1.33325C0.0209961 1.09714 0.097385 0.902696 0.250163 0.749919C0.402941 0.597141 0.597385 0.520752 0.833496 0.520752C1.06961 0.520752 1.26405 0.597141 1.41683 0.749919L5.50016 4.83325L9.5835 0.749919C9.73627 0.597141 9.93072 0.520752 10.1668 0.520752C10.4029 0.520752 10.5974 0.597141 10.7502 0.749919C10.9029 0.902696 10.9793 1.09714 10.9793 1.33325C10.9793 1.56936 10.9029 1.76381 10.7502 1.91659L6.66683 5.99992L10.7502 10.0833C10.9029 10.236 10.9793 10.4305 10.9793 10.6666C10.9793 10.9027 10.9029 11.0971 10.7502 11.2499C10.5974 11.4027 10.4029 11.4791 10.1668 11.4791C9.93072 11.4791 9.73627 11.4027 9.5835 11.2499L5.50016 7.16659Z" fill="white"/>
</svg>
