<svg width="33" height="32" viewBox="0 0 33 32" fill="none" xmlns="http://www.w3.org/2000/svg">
<path d="M6.18964 1.69067C6.81459 1.67306 7.4413 1.66338 8.06713 1.65282C8.24581 1.6493 8.42097 1.64578 8.60405 1.63873C10.3117 1.62113 10.3117 1.62113 10.9824 2.24432C11.3433 2.96961 11.4022 3.57432 11.4093 4.37883C11.4155 4.60945 11.419 4.84358 11.4225 5.08036C11.4295 5.56536 11.4366 6.05035 11.4401 6.53535C11.4841 8.57392 11.7086 10.0183 13.1415 11.5209C14.3518 12.5551 15.6766 12.7444 17.2301 12.6933C18.4369 12.5419 19.5407 12.0155 20.3901 11.1389C21.8407 9.10381 21.7447 6.71755 21.721 4.31018C21.7447 2.5744 21.7447 2.5744 22.3019 2.01018C23.1135 1.49086 25.9187 1.64946 26.8438 1.69083C26.8614 2.72595 26.8746 3.76356 26.8852 4.80221C26.8887 5.15606 26.8922 5.50638 26.8984 5.85847C26.96 9.37491 26.4521 12.2321 23.9523 14.9035C22.5422 16.2414 21.1603 16.9703 19.2828 17.4412V30.9674H13.726V30.2526C13.7295 30.015 13.7295 29.7817 13.7295 29.537V29.1418C13.7295 28.7087 13.7295 28.2792 13.733 27.8461V26.9483C13.733 26.1614 13.7366 25.3736 13.7366 24.5858C13.7401 23.7813 13.7401 22.9768 13.7401 22.1723L13.7507 17.4412C13.6351 17.4023 13.5192 17.3644 13.403 17.3276L12.9532 17.1762L12.5025 17.0292C10.192 16.2142 8.40777 14.3912 7.29694 12.2532C6.51972 10.5025 6.15884 8.98674 6.17204 7.08196V6.61369C6.17204 6.12253 6.17555 5.63049 6.17907 5.13933V4.13853L6.18964 1.69067Z" fill="#F69E1A"/>
<path d="M18.2447 4.56668C18.9665 4.9846 19.4206 5.48265 19.6513 6.27971C19.7921 7.4516 19.8273 8.55887 19.0976 9.5455C18.345 10.2857 17.5467 10.6226 16.4746 10.6398C15.5081 10.5752 14.862 10.3701 14.1191 9.72645C13.3005 8.6864 13.2213 7.75406 13.3833 6.46153C13.7063 5.50247 14.2327 5.04492 15.0407 4.46587C16.0996 4.11947 17.2166 4.12291 18.2447 4.56668Z" fill="#F29B19"/>
</svg>
