<svg width="19" height="20" viewBox="0 0 19 20" fill="none" xmlns="http://www.w3.org/2000/svg">
<path d="M5.00586 0.0141602C4.45356 0.0141602 4.00586 0.46216 4.00586 1.01416C1.79576 1.01416 0.00585938 2.80616 0.00585938 5.01416V7.01416V15.0142C0.00585938 17.2222 1.79676 19.0142 4.00586 19.0142H14.0059C16.2149 19.0142 18.0059 17.2232 18.0059 15.0142V7.01416V5.01416C18.0059 2.80916 16.2139 1.01416 14.0059 1.01416C14.0059 0.46216 13.5579 0.0141602 13.0059 0.0141602C12.4539 0.0141602 12.0059 0.46216 12.0059 1.01416H6.00586C6.00586 0.46216 5.55816 0.0141602 5.00586 0.0141602ZM4.00586 3.01416C4.00586 3.56616 4.45356 4.01416 5.00586 4.01416C5.55816 4.01416 6.00586 3.56616 6.00586 3.01416H12.0059C12.0059 3.56616 12.4539 4.01416 13.0059 4.01416C13.5579 4.01416 14.0059 3.56616 14.0059 3.01416C15.1069 3.01416 16.0059 3.90616 16.0059 5.01416V6.01416C14.0799 6.01416 3.93146 6.01416 2.00586 6.01416V5.01416C2.00586 3.91216 2.89826 3.01416 4.00586 3.01416ZM2.00586 8.01416C3.93036 8.01416 14.0809 8.01416 16.0059 8.01416V15.0142C16.0059 16.1172 15.1109 17.0142 14.0059 17.0142H4.00586C2.90126 17.0142 2.00586 16.1192 2.00586 15.0142V8.01416ZM5.00586 10.0142C4.45356 10.0142 4.00586 10.4622 4.00586 11.0142C4.00586 11.5662 4.45356 12.0142 5.00586 12.0142C5.55816 12.0142 6.00586 11.5662 6.00586 11.0142C6.00586 10.4622 5.55816 10.0142 5.00586 10.0142ZM9.00586 10.0142C8.45386 10.0142 8.00586 10.4622 8.00586 11.0142C8.00586 11.5662 8.45386 12.0142 9.00586 12.0142C9.55786 12.0142 10.0059 11.5662 10.0059 11.0142C10.0059 10.4622 9.55786 10.0142 9.00586 10.0142ZM13.0059 10.0142C12.4539 10.0142 12.0059 10.4622 12.0059 11.0142C12.0059 11.5662 12.4539 12.0142 13.0059 12.0142C13.5579 12.0142 14.0059 11.5662 14.0059 11.0142C14.0059 10.4622 13.5579 10.0142 13.0059 10.0142ZM5.00586 13.0142C4.45356 13.0142 4.00586 13.4622 4.00586 14.0142C4.00586 14.5662 4.45356 15.0142 5.00586 15.0142C5.55816 15.0142 6.00586 14.5662 6.00586 14.0142C6.00586 13.4622 5.55816 13.0142 5.00586 13.0142ZM9.00586 13.0142C8.45386 13.0142 8.00586 13.4622 8.00586 14.0142C8.00586 14.5662 8.45386 15.0142 9.00586 15.0142C9.55786 15.0142 10.0059 14.5662 10.0059 14.0142C10.0059 13.4622 9.55786 13.0142 9.00586 13.0142ZM13.0059 13.0142C12.4539 13.0142 12.0059 13.4622 12.0059 14.0142C12.0059 14.5662 12.4539 15.0142 13.0059 15.0142C13.5579 15.0142 14.0059 14.5662 14.0059 14.0142C14.0059 13.4622 13.5579 13.0142 13.0059 13.0142Z" fill="#6C6E76"/>
</svg>
