<svg width="18" height="15" viewBox="0 0 18 15" fill="none" xmlns="http://www.w3.org/2000/svg">
<path d="M4.0118 0.331512C2.17097 0.331512 0.678467 1.82401 0.678467 3.66484V8.66483C0.678467 10.5057 2.17097 11.9982 4.0118 11.9982H6.14681L8.41264 14.264C8.73764 14.5898 9.25929 14.589 9.58512 14.264L11.8768 11.9982H14.0118C15.8526 11.9982 17.3451 10.5057 17.3451 8.66483V3.66484C17.3451 1.82401 15.8526 0.331512 14.0118 0.331512H4.0118ZM4.0118 1.99818H14.0118C14.9326 1.99818 15.6785 2.74401 15.6785 3.66484V8.66483C15.6785 9.58566 14.9326 10.3315 14.0118 10.3315H11.5118C11.291 10.3315 11.0693 10.4098 10.9126 10.5657L9.0118 12.4665L7.11096 10.5657C6.9543 10.409 6.73347 10.3315 6.5118 10.3315H4.0118C3.09097 10.3315 2.34513 9.58566 2.34513 8.66483V3.66484C2.34513 2.74401 3.09097 1.99818 4.0118 1.99818ZM4.84513 3.66484C4.38513 3.66484 4.0118 4.03817 4.0118 4.49817C4.0118 4.95817 4.38513 5.3315 4.84513 5.3315H13.1785C13.6385 5.3315 14.0118 4.95817 14.0118 4.49817C14.0118 4.03817 13.6385 3.66484 13.1785 3.66484H4.84513ZM4.84513 6.99817C4.38513 6.99817 4.0118 7.3715 4.0118 7.8315C4.0118 8.2915 4.38513 8.66483 4.84513 8.66483H10.6785C11.1385 8.66483 11.5118 8.2915 11.5118 7.8315C11.5118 7.3715 11.1385 6.99817 10.6785 6.99817H4.84513Z" fill="#6C6E76"/>
</svg>
