<svg width="18" height="18" viewBox="0 0 18 18" fill="none" xmlns="http://www.w3.org/2000/svg">
<path d="M17.0835 9.00001C17.2418 8.69168 17.3335 8.3417 17.3335 7.98337C17.3335 6.80003 16.3668 5.84169 15.1752 5.84169H13.0335C13.6335 3.47503 13.2418 1.88335 11.8668 1.09168C11.5418 0.908351 10.4418 0.450021 9.64184 0.783355C9.29184 0.933355 9.05018 1.2167 8.95018 1.62503C8.70018 2.63336 8.45851 3.58333 7.90018 4.40833C7.61685 4.81667 7.22518 5.29169 6.76685 5.57502V6.95833V7.07501V14.225V14.775V15.5334L7.90018 15.9083C8.53351 16.125 9.20018 16.2333 9.87518 16.2333H14.1502C15.3418 16.2333 16.3168 15.2667 16.3168 14.0833C16.3168 14.0167 16.3168 13.95 16.3085 13.8833C16.9335 13.4917 17.3335 12.8083 17.3335 12.05C17.3335 11.6917 17.2418 11.3417 17.0835 11.0333C17.2418 10.725 17.3335 10.375 17.3335 10.0167C17.3335 9.65832 17.2418 9.30834 17.0835 9.00001Z" fill="#6C6E76"/>
<path d="M1.29175 4.51666C0.950081 4.51666 0.666748 4.8 0.666748 5.15V16.7083C0.666748 17.05 0.950081 17.3333 1.29175 17.3333H4.20841C4.69175 17.3333 5.13341 17.2 5.51675 16.9667V14.775V7.075V4.88333C5.13341 4.65 4.69175 4.51666 4.20841 4.51666H1.29175V4.51666ZM3.71675 14.6083C3.35842 14.6083 3.06675 14.325 3.06675 13.9667C3.06675 13.6084 3.35842 13.3167 3.71675 13.3167C4.07508 13.3167 4.35842 13.6084 4.35842 13.9667C4.35842 14.325 4.07508 14.6083 3.71675 14.6083Z" fill="#6C6E76"/>
</svg>
