<svg width="35" height="36" viewBox="0 0 35 36" fill="none" xmlns="http://www.w3.org/2000/svg">
<path d="M29.0001 10.9999C28.8612 10.9999 28.7339 10.9675 28.6182 10.9027C28.5025 10.8379 28.4168 10.7314 28.3612 10.5833L27.1112 7.72217L24.1112 6.38883C23.9631 6.33328 23.8566 6.24762 23.7918 6.13188C23.727 6.01615 23.6946 5.88885 23.6946 5.74996C23.6946 5.61107 23.727 5.48375 23.7918 5.368C23.8566 5.25225 23.9631 5.1666 24.1112 5.11104L27.1112 3.8055L28.3612 1.02771C28.4168 0.87957 28.5025 0.773098 28.6182 0.708292C28.7339 0.643486 28.8612 0.611084 29.0001 0.611084C29.139 0.611084 29.2663 0.643486 29.3821 0.708292C29.4978 0.773098 29.5834 0.87957 29.639 1.02771L30.889 3.8055L33.889 5.11104C34.0372 5.1666 34.1437 5.25225 34.2085 5.368C34.2733 5.48375 34.3057 5.61107 34.3057 5.74996C34.3057 5.88885 34.2733 6.01615 34.2085 6.13188C34.1437 6.24762 34.0372 6.33328 33.889 6.38883L30.889 7.72217L29.639 10.5833C29.5834 10.7314 29.4978 10.8379 29.3821 10.9027C29.2663 10.9675 29.139 10.9999 29.0001 10.9999ZM29.0001 35.3333C28.8798 35.3333 28.7571 35.3009 28.6321 35.2361C28.5071 35.1712 28.4168 35.0648 28.3612 34.9166L27.1112 32.1389L24.139 30.8333C23.9909 30.7777 23.8844 30.6921 23.8196 30.5764C23.7548 30.4606 23.7224 30.3333 23.7224 30.1944C23.7224 30.0555 23.7548 29.9282 23.8196 29.8125C23.8844 29.6967 23.9909 29.6111 24.139 29.5555L27.1112 28.25L28.3612 25.3611C28.4168 25.2129 28.5025 25.1065 28.6182 25.0417C28.7339 24.9768 28.8612 24.9444 29.0001 24.9444C29.139 24.9444 29.2663 24.9768 29.3821 25.0417C29.4978 25.1065 29.5834 25.2129 29.639 25.3611L30.889 28.25L33.8612 29.5555C34.0094 29.6111 34.1159 29.6967 34.1807 29.8125C34.2455 29.9282 34.2779 30.0555 34.2779 30.1944C34.2779 30.3333 34.2455 30.4606 34.1807 30.5764C34.1159 30.6921 34.0094 30.7777 33.8612 30.8333L30.889 32.1389L29.639 34.9166C29.5834 35.0648 29.4932 35.1712 29.3682 35.2361C29.2432 35.3009 29.1205 35.3333 29.0001 35.3333ZM11.2501 28.4583C11.0001 28.4583 10.7594 28.3888 10.5279 28.25C10.2964 28.1111 10.1205 27.9166 10.0001 27.6666L7.30566 21.861L1.47233 19.2222C1.22233 19.1018 1.02789 18.9259 0.888997 18.6944C0.750109 18.4629 0.680664 18.2222 0.680664 17.9722C0.680664 17.7222 0.750109 17.4814 0.888997 17.25C1.02789 17.0185 1.22233 16.8426 1.47233 16.7222L7.30566 14.0833L10.0001 8.30554C10.1205 8.03701 10.2964 7.83331 10.5279 7.69442C10.7594 7.55553 11.0001 7.48608 11.2501 7.48608C11.5001 7.48608 11.7408 7.55553 11.9723 7.69442C12.2038 7.83331 12.3797 8.02775 12.5001 8.27775L15.2223 14.0833L21.0279 16.7222C21.2964 16.8426 21.5001 17.0185 21.639 17.25C21.7779 17.4814 21.8473 17.7222 21.8473 17.9722C21.8473 18.2222 21.7779 18.4629 21.639 18.6944C21.5001 18.9259 21.2964 19.1018 21.0279 19.2222L15.2223 21.861L12.5001 27.6666C12.3797 27.9351 12.2038 28.1342 11.9723 28.2638C11.7408 28.3935 11.5001 28.4583 11.2501 28.4583ZM11.2501 23.5833L13.139 19.7222L17.0557 17.9722L13.139 16.2222L11.2501 12.361L9.389 16.2222L5.44454 17.9722L9.389 19.7222L11.2501 23.5833Z" fill="#FF7B1C"/>
</svg>
