<svg width="25" height="24" viewBox="0 0 25 24" fill="none" xmlns="http://www.w3.org/2000/svg">
<path d="M12.4989 2.01416C6.9761 2.01416 2.4989 6.46217 2.4989 12.0142C2.4989 17.5662 6.9761 22.0142 12.4989 22.0142C17.2932 22.0142 22.4884 18.2072 22.4989 11.9522V10.0142H12.4989V14.0142H18.0927C17.2644 16.3362 15.1053 18.0142 12.4989 18.0142C9.1852 18.0142 6.4989 15.3282 6.4989 12.0142C6.4989 8.70018 9.1852 6.01417 12.4989 6.01417C13.9042 6.01417 15.2078 6.48519 16.2144 7.30519C16.542 6.97819 18.4989 5.01419 19.1327 4.50819C17.3692 2.92818 15.0633 2.01416 12.4989 2.01416Z" fill="white"/>
</svg>
