<svg width="20" height="20" viewBox="0 0 20 20" fill="none" xmlns="http://www.w3.org/2000/svg">
  <path
    d="M10 20C8.6167 20 7.3167 19.7375 6.10003 19.2125C4.88336 18.6875 3.82503 17.975 2.92503 17.075C2.02503 16.175 1.31253 15.1167 0.787531 13.9C0.262531 12.6833 3.05176e-05 11.3833 3.05176e-05 10C3.05176e-05 8.61667 0.262531 7.31667 0.787531 6.1C1.31253 4.88333 2.02503 3.825 2.92503 2.925C3.82503 2.025 4.88336 1.3125 6.10003 0.7875C7.3167 0.2625 8.6167 0 10 0C10.8 0 11.5792 0.0916667 12.3375 0.275C13.0959 0.458333 13.825 0.725 14.525 1.075C14.775 1.20833 14.9375 1.40833 15.0125 1.675C15.0875 1.94167 15.0417 2.19167 14.875 2.425C14.7084 2.65833 14.4875 2.80833 14.2125 2.875C13.9375 2.94167 13.6667 2.90833 13.4 2.775C12.8667 2.525 12.3125 2.33333 11.7375 2.2C11.1625 2.06667 10.5834 2 10 2C7.78336 2 5.89586 2.77917 4.33753 4.3375C2.7792 5.89583 2.00003 7.78333 2.00003 10C2.00003 12.2167 2.7792 14.1042 4.33753 15.6625C5.89586 17.2208 7.78336 18 10 18C12.2167 18 14.1042 17.2208 15.6625 15.6625C17.2209 14.1042 18 12.2167 18 10C18 9.86667 17.9959 9.7375 17.9875 9.6125C17.9792 9.4875 17.9667 9.35833 17.95 9.225C17.9167 8.94167 17.9709 8.67083 18.1125 8.4125C18.2542 8.15417 18.4667 7.98333 18.75 7.9C19.0167 7.81667 19.2667 7.84167 19.5 7.975C19.7334 8.10833 19.8667 8.30833 19.9 8.575C19.9334 8.80833 19.9584 9.04167 19.975 9.275C19.9917 9.50833 20 9.75 20 10C20 11.3833 19.7375 12.6833 19.2125 13.9C18.6875 15.1167 17.975 16.175 17.075 17.075C16.175 17.975 15.1167 18.6875 13.9 19.2125C12.6834 19.7375 11.3834 20 10 20ZM8.60003 11.8L17.9 2.475C18.0834 2.29167 18.3125 2.19583 18.5875 2.1875C18.8625 2.17917 19.1 2.275 19.3 2.475C19.4834 2.65833 19.575 2.89167 19.575 3.175C19.575 3.45833 19.4834 3.69167 19.3 3.875L9.30003 13.9C9.10003 14.1 8.8667 14.2 8.60003 14.2C8.33336 14.2 8.10003 14.1 7.90003 13.9L5.05003 11.05C4.8667 10.8667 4.77503 10.6333 4.77503 10.35C4.77503 10.0667 4.8667 9.83333 5.05003 9.65C5.23336 9.46667 5.4667 9.375 5.75003 9.375C6.03336 9.375 6.2667 9.46667 6.45003 9.65L8.60003 11.8Z"
    fill="#FFFFFF" />
</svg>