<svg width="18" height="18" viewBox="0 0 18 18" fill="none" xmlns="http://www.w3.org/2000/svg">
<path d="M2 14C1.45 14 0.979167 13.8042 0.5875 13.4125C0.195833 13.0208 0 12.55 0 12V6C0 5.45 0.195833 4.97917 0.5875 4.5875C0.979167 4.19583 1.45 4 2 4H16C16.55 4 17.0208 4.19583 17.4125 4.5875C17.8042 4.97917 18 5.45 18 6V12C18 12.55 17.8042 13.0208 17.4125 13.4125C17.0208 13.8042 16.55 14 16 14H2ZM2 12H16V6H2V12ZM0.975 2C0.691667 2 0.458333 1.90417 0.275 1.7125C0.0916667 1.52083 0 1.28333 0 1C0 0.716667 0.0958333 0.479167 0.2875 0.2875C0.479167 0.0958333 0.716667 0 1 0H17.025C17.3083 0 17.5417 0.0958333 17.725 0.2875C17.9083 0.479167 18 0.716667 18 1C18 1.28333 17.9042 1.52083 17.7125 1.7125C17.5208 1.90417 17.2833 2 17 2H0.975ZM0.975 18C0.691667 18 0.458333 17.9042 0.275 17.7125C0.0916667 17.5208 0 17.2833 0 17C0 16.7167 0.0958333 16.4792 0.2875 16.2875C0.479167 16.0958 0.716667 16 1 16H17.025C17.3083 16 17.5417 16.0958 17.725 16.2875C17.9083 16.4792 18 16.7167 18 17C18 17.2833 17.9042 17.5208 17.7125 17.7125C17.5208 17.9042 17.2833 18 17 18H0.975Z" fill="#6C6E76"/>
</svg>
