<svg width="24" height="24" viewBox="0 0 24 24" fill="none" xmlns="http://www.w3.org/2000/svg">
<mask id="mask0_3760_17553" style="mask-type:alpha" maskUnits="userSpaceOnUse" x="0" y="0" width="24" height="24">
<rect width="24" height="24" fill="#D9D9D9"/>
</mask>
<g mask="url(#mask0_3760_17553)">
<path d="M3.975 21C3.69167 21 3.45833 20.9042 3.275 20.7125C3.09167 20.5208 3 20.2833 3 20C3 19.7167 3.09583 19.4792 3.2875 19.2875C3.47917 19.0958 3.71667 19 4 19H20.025C20.3083 19 20.5417 19.0958 20.725 19.2875C20.9083 19.4792 21 19.7167 21 20C21 20.2833 20.9042 20.5208 20.7125 20.7125C20.5208 20.9042 20.2833 21 20 21H3.975ZM5 17C4.45 17 3.97917 16.8042 3.5875 16.4125C3.19583 16.0208 3 15.55 3 15V9C3 8.45 3.19583 7.97917 3.5875 7.5875C3.97917 7.19583 4.45 7 5 7H19C19.55 7 20.0208 7.19583 20.4125 7.5875C20.8042 7.97917 21 8.45 21 9V15C21 15.55 20.8042 16.0208 20.4125 16.4125C20.0208 16.8042 19.55 17 19 17H5ZM3.975 5C3.69167 5 3.45833 4.90417 3.275 4.7125C3.09167 4.52083 3 4.28333 3 4C3 3.71667 3.09583 3.47917 3.2875 3.2875C3.47917 3.09583 3.71667 3 4 3H20.025C20.3083 3 20.5417 3.09583 20.725 3.2875C20.9083 3.47917 21 3.71667 21 4C21 4.28333 20.9042 4.52083 20.7125 4.7125C20.5208 4.90417 20.2833 5 20 5H3.975Z" fill="#FF7B1C"/>
</g>
</svg>
