<svg width="32" height="32" viewBox="0 0 32 32" fill="none" xmlns="http://www.w3.org/2000/svg">
<rect width="32" height="32" rx="16" fill="white"/>
<mask id="mask0_3719_14911" style="mask-type:alpha" maskUnits="userSpaceOnUse" x="4" y="4" width="24" height="24">
<rect x="4" y="4" width="24" height="24" fill="#D9D9D9"/>
</mask>
<g mask="url(#mask0_3719_14911)">
<path d="M16 21.5C17.25 21.5 18.3125 21.0625 19.1875 20.1875C20.0625 19.3125 20.5 18.25 20.5 17C20.5 15.75 20.0625 14.6875 19.1875 13.8125C18.3125 12.9375 17.25 12.5 16 12.5C14.75 12.5 13.6875 12.9375 12.8125 13.8125C11.9375 14.6875 11.5 15.75 11.5 17C11.5 18.25 11.9375 19.3125 12.8125 20.1875C13.6875 21.0625 14.75 21.5 16 21.5ZM8 25C7.45 25 6.97917 24.8042 6.5875 24.4125C6.19583 24.0208 6 23.55 6 23V11C6 10.45 6.19583 9.97917 6.5875 9.5875C6.97917 9.19583 7.45 9 8 9H11.15L12.4 7.65C12.5833 7.43333 12.8042 7.27083 13.0625 7.1625C13.3208 7.05417 13.5917 7 13.875 7H18.125C18.4083 7 18.6792 7.05417 18.9375 7.1625C19.1958 7.27083 19.4167 7.43333 19.6 7.65L20.85 9H24C24.55 9 25.0208 9.19583 25.4125 9.5875C25.8042 9.97917 26 10.45 26 11V23C26 23.55 25.8042 24.0208 25.4125 24.4125C25.0208 24.8042 24.55 25 24 25H8ZM24 23V11H8V23H24Z" fill="#FF7B1C"/>
</g>
</svg>
