<svg width="20" height="16" viewBox="0 0 20 16" fill="none" xmlns="http://www.w3.org/2000/svg">
<path d="M20.0002 9.12474C20.0002 9.37338 19.9014 9.61184 19.7256 9.78765C19.5498 9.96347 19.3113 10.0622 19.0627 10.0622H18.4377V10.6872C18.4377 10.9359 18.3389 11.1743 18.1631 11.3502C17.9873 11.526 17.7488 11.6247 17.5002 11.6247C17.2515 11.6247 17.0131 11.526 16.8373 11.3502C16.6615 11.1743 16.5627 10.9359 16.5627 10.6872V10.0622H15.9377C15.689 10.0622 15.4506 9.96347 15.2748 9.78765C15.099 9.61184 15.0002 9.37338 15.0002 9.12474C15.0002 8.8761 15.099 8.63764 15.2748 8.46183C15.4506 8.28601 15.689 8.18724 15.9377 8.18724H16.5627V7.56224C16.5627 7.3136 16.6615 7.07514 16.8373 6.89933C17.0131 6.72351 17.2515 6.62474 17.5002 6.62474C17.7488 6.62474 17.9873 6.72351 18.1631 6.89933C18.3389 7.07514 18.4377 7.3136 18.4377 7.56224V8.18724H19.0627C19.3113 8.18724 19.5498 8.28601 19.7256 8.46183C19.9014 8.63764 20.0002 8.8761 20.0002 9.12474ZM15.7181 13.5216C15.8781 13.712 15.9559 13.9582 15.9343 14.2059C15.9128 14.4537 15.7937 14.6828 15.6033 14.8427C15.4129 15.0027 15.1667 15.0804 14.919 15.0589C14.6712 15.0374 14.4422 14.9183 14.2822 14.7279C13.2127 13.4544 11.3283 11.9372 8.43768 11.9372C6.18065 11.9372 4.10487 12.9279 2.59315 14.7279C2.43319 14.9183 2.20414 15.0374 1.95639 15.0589C1.70863 15.0804 1.46247 15.0027 1.27205 14.8427C1.08164 14.6828 0.962563 14.4537 0.941026 14.2059C0.919488 13.9582 0.997252 13.712 1.15721 13.5216C2.17575 12.2915 3.48243 11.3321 4.96112 10.7286C4.04161 10.0057 3.37033 9.01416 3.04069 7.89192C2.71105 6.76967 2.73945 5.57258 3.12193 4.46723C3.50441 3.36188 4.22196 2.40326 5.17471 1.72476C6.12746 1.04626 7.26802 0.681641 8.43768 0.681641C9.60734 0.681641 10.7479 1.04626 11.7007 1.72476C12.6534 2.40326 13.3709 3.36188 13.7534 4.46723C14.1359 5.57258 14.1643 6.76967 13.8347 7.89192C13.505 9.01416 12.8337 10.0057 11.9142 10.7286C13.3931 11.3318 14.6998 12.2913 15.7181 13.5216ZM8.43768 10.0622C9.17936 10.0622 9.90438 9.84231 10.5211 9.43025C11.1378 9.0182 11.6184 8.43253 11.9022 7.7473C12.1861 7.06208 12.2603 6.30808 12.1156 5.58065C11.9709 4.85322 11.6138 4.18504 11.0893 3.66059C10.5649 3.13614 9.8967 2.77899 9.16927 2.6343C8.44184 2.4896 7.68784 2.56386 7.00262 2.84769C6.31739 3.13152 5.73172 3.61217 5.31967 4.22885C4.90761 4.84554 4.68768 5.57056 4.68768 6.31224C4.68871 7.30648 5.08413 8.25971 5.78717 8.96275C6.49021 9.66579 7.44344 10.0612 8.43768 10.0622Z" fill="black"/>
</svg>
