<svg width="127" height="94" viewBox="0 0 127 94" fill="none" xmlns="http://www.w3.org/2000/svg">
<path fill-rule="evenodd" clip-rule="evenodd" d="M121.677 32.4731C124.617 32.4731 127 34.8373 127 37.7537C127 40.67 124.617 43.0342 121.677 43.0342H91.2575C94.1975 43.0342 96.5808 45.3984 96.5808 48.3147C96.5808 51.2311 94.1975 53.5953 91.2575 53.5953H107.988C110.928 53.5953 113.311 55.9594 113.311 58.8758C113.311 61.7921 110.928 64.1563 107.988 64.1563H100.251C96.544 64.1563 93.5389 66.5205 93.5389 69.4368C93.5389 71.3811 95.0599 73.1412 98.1018 74.7174C101.042 74.7174 103.425 77.0815 103.425 79.9979C103.425 82.9142 101.042 85.2784 98.1018 85.2784H34.982C32.042 85.2784 29.6587 82.9142 29.6587 79.9979C29.6587 77.0815 32.042 74.7174 34.982 74.7174H5.32335C2.38335 74.7174 0 72.3532 0 69.4368C0 66.5205 2.38335 64.1563 5.32335 64.1563H35.7425C38.6825 64.1563 41.0659 61.7921 41.0659 58.8758C41.0659 55.9594 38.6825 53.5953 35.7425 53.5953H16.7305C13.7905 53.5953 11.4072 51.2311 11.4072 48.3147C11.4072 45.3984 13.7905 43.0342 16.7305 43.0342H47.1497C44.2097 43.0342 41.8263 40.67 41.8263 37.7537C41.8263 34.8373 44.2097 32.4731 47.1497 32.4731H121.677ZM121.677 53.5953C124.617 53.5953 127 55.9594 127 58.8758C127 61.7921 124.617 64.1563 121.677 64.1563C118.737 64.1563 116.353 61.7921 116.353 58.8758C116.353 55.9594 118.737 53.5953 121.677 53.5953Z" fill="#E7E9F1"/>
<path d="M29.1006 9.021C31.3844 13.3657 37.2553 22.7905 42.469 25.7315" stroke="#C5C8D2" stroke-width="2" stroke-linecap="round"/>
<path d="M24.2891 65.5249C27.9323 68.8141 36.696 75.6327 42.6044 76.5931" stroke="#C5C8D2" stroke-width="2" stroke-linecap="round"/>
<path d="M90.2612 75.1948C92.8792 77.2001 100.889 81.6785 111.985 83.5501" stroke="#C5C8D2" stroke-width="1.5" stroke-linecap="round"/>
<path d="M29.4351 27.9038C30.9947 32.0257 35.618 41.4393 41.6337 46.1183" stroke="#C5C8D2" stroke-width="1.5" stroke-linecap="round"/>
<path d="M38.7925 10.6921C41.8673 14.8363 39.4053 20.05 38.1241 22.0553C23.2852 23.1247 23.1403 8.40833 24.5886 1C28.2649 5.51184 34.9491 5.51184 38.7925 10.6921Z" stroke="#C5C8D2" stroke-width="2" stroke-linejoin="round"/>
<path d="M33.9625 63.7474C38.2789 66.5754 37.7681 72.3185 37.258 74.6427C23.7005 80.7691 18.4842 67.0075 17.2859 59.5546C22.2938 62.52 28.5671 60.2124 33.9625 63.7474Z" stroke="#C5C8D2" stroke-width="2" stroke-linejoin="round"/>
<path d="M119.839 55.9775V66.3381" stroke="#C5C8D2" stroke-width="2" stroke-linecap="round"/>
<path d="M125.019 61.1577L114.659 61.1577" stroke="#C5C8D2" stroke-width="2" stroke-linecap="round"/>
<path d="M40.6309 32.2483C48.5405 46.0066 75.8901 72.688 96.444 58.3169C116.998 43.9458 75.8901 21.0525 58.0098 38.2642C40.0474 55.555 63.8585 86.892 115.327 92.7404" stroke="#C5C8D2" stroke-width="2" stroke-linecap="round"/>
</svg>
