<svg width="24" height="24" viewBox="0 0 24 24" fill="none" xmlns="http://www.w3.org/2000/svg">
<path fill-rule="evenodd" clip-rule="evenodd" d="M13.4141 12.0002L17.7071 7.70725C18.0981 7.31625 18.0981 6.68425 17.7071 6.29325C17.3161 5.90225 16.6841 5.90225 16.2931 6.29325L12.0001 10.5862L7.7071 6.29325C7.3161 5.90225 6.6841 5.90225 6.2931 6.29325C5.9021 6.68425 5.9021 7.31625 6.2931 7.70725L10.5861 12.0002L6.2931 16.2933C5.9021 16.6842 5.9021 17.3162 6.2931 17.7072C6.4881 17.9022 6.7441 18.0002 7.0001 18.0002C7.2561 18.0002 7.5121 17.9022 7.7071 17.7072L12.0001 13.4142L16.2931 17.7072C16.4881 17.9022 16.7441 18.0002 17.0001 18.0002C17.2561 18.0002 17.5121 17.9022 17.7071 17.7072C18.0981 17.3162 18.0981 16.6842 17.7071 16.2933L13.4141 12.0002Z" fill="#34363F"/>
</svg>
