<svg width="127" height="94" viewBox="0 0 127 94" fill="none" xmlns="http://www.w3.org/2000/svg">
<path fill-rule="evenodd" clip-rule="evenodd" d="M121.677 32.4736C124.617 32.4736 127 34.8378 127 37.7542C127 40.6705 124.617 43.0347 121.677 43.0347H91.2575C94.1975 43.0347 96.5808 45.3989 96.5808 48.3152C96.5808 51.2316 94.1975 53.5957 91.2575 53.5957H107.988C110.928 53.5957 113.311 55.9599 113.311 58.8763C113.311 61.7926 110.928 64.1568 107.988 64.1568H100.251C96.544 64.1568 93.5389 66.521 93.5389 69.4373C93.5389 71.3816 95.0599 73.1417 98.1018 74.7178C101.042 74.7178 103.425 77.082 103.425 79.9984C103.425 82.9147 101.042 85.2789 98.1018 85.2789H34.982C32.042 85.2789 29.6587 82.9147 29.6587 79.9984C29.6587 77.082 32.042 74.7178 34.982 74.7178H5.32335C2.38335 74.7178 0 72.3537 0 69.4373C0 66.521 2.38335 64.1568 5.32335 64.1568H35.7425C38.6825 64.1568 41.0659 61.7926 41.0659 58.8763C41.0659 55.9599 38.6825 53.5957 35.7425 53.5957H16.7305C13.7905 53.5957 11.4072 51.2316 11.4072 48.3152C11.4072 45.3989 13.7905 43.0347 16.7305 43.0347H47.1497C44.2097 43.0347 41.8263 40.6705 41.8263 37.7542C41.8263 34.8378 44.2097 32.4736 47.1497 32.4736H121.677ZM121.677 53.5957C124.617 53.5957 127 55.9599 127 58.8763C127 61.7926 124.617 64.1568 121.677 64.1568C118.737 64.1568 116.353 61.7926 116.353 58.8763C116.353 55.9599 118.737 53.5957 121.677 53.5957Z" fill="#E7E9F1"/>
<path d="M29.1016 9.02148C31.3853 13.3662 37.2563 22.791 42.47 25.732" stroke="#C5C8D2" stroke-width="2" stroke-linecap="round"/>
<path d="M24.2891 65.5244C27.9323 68.8136 36.696 75.6322 42.6044 76.5926" stroke="#C5C8D2" stroke-width="2" stroke-linecap="round"/>
<path d="M90.2617 75.1943C92.8797 77.1996 100.89 81.678 111.985 83.5496" stroke="#C5C8D2" stroke-width="1.5" stroke-linecap="round"/>
<path d="M29.4355 27.9043C30.9952 32.0262 35.6184 41.4398 41.6342 46.1188" stroke="#C5C8D2" stroke-width="1.5" stroke-linecap="round"/>
<path d="M38.793 10.6921C41.8678 14.8363 39.4058 20.05 38.1246 22.0553C23.2857 23.1247 23.1408 8.40833 24.5891 1C28.2654 5.51184 34.9496 5.51184 38.793 10.6921Z" stroke="#C5C8D2" stroke-width="2" stroke-linejoin="round"/>
<path d="M33.962 63.7469C38.2784 66.5749 37.7676 72.318 37.2575 74.6422C23.7 80.7687 18.4837 67.007 17.2854 59.5541C22.2933 62.5195 28.5666 60.212 33.962 63.7469Z" stroke="#C5C8D2" stroke-width="2" stroke-linejoin="round"/>
<path d="M119.838 55.9775V66.3381" stroke="#C5C8D2" stroke-width="2" stroke-linecap="round"/>
<path d="M125.02 61.1582L114.659 61.1582" stroke="#C5C8D2" stroke-width="2" stroke-linecap="round"/>
<path d="M40.6309 32.2483C48.5405 46.0066 75.8901 72.688 96.444 58.3169C116.998 43.9458 75.8901 21.0525 58.0098 38.2642C40.0474 55.555 63.8585 86.892 115.327 92.7404" stroke="#C5C8D2" stroke-width="2" stroke-linecap="round"/>
</svg>
