<svg width="12" height="12" viewBox="0 0 12 12" fill="none" xmlns="http://www.w3.org/2000/svg">
<g id="link 1" clip-path="url(#clip0_7655_54918)">
<path id="Vector" d="M6.92214 8.63323L5.29114 10.2642C4.81761 10.7251 4.18165 10.981 3.52087 10.9766C2.86009 10.9722 2.22762 10.7078 1.7603 10.2406C1.29298 9.77338 1.02839 9.14099 1.02378 8.48021C1.01916 7.81943 1.27489 7.1834 1.73564 6.70973L3.36664 5.07723C3.4604 4.98341 3.51304 4.85619 3.513 4.72356C3.51295 4.59092 3.46021 4.46374 3.36639 4.36998C3.27257 4.27623 3.14535 4.22359 3.01272 4.22363C2.88008 4.22368 2.7529 4.27641 2.65914 4.37023L1.02864 6.00273C0.36978 6.66193 -0.000234316 7.55586 1.11325e-07 8.48787C0.000234539 9.41988 0.370699 10.3136 1.02989 10.9725C1.68909 11.6313 2.58302 12.0014 3.51503 12.0011C4.44704 12.0009 5.34078 11.6304 5.99964 10.9712L7.63064 9.34023C7.72172 9.24593 7.77212 9.11963 7.77098 8.98853C7.76984 8.85743 7.71726 8.73203 7.62455 8.63932C7.53185 8.54662 7.40644 8.49404 7.27535 8.4929C7.14425 8.49176 7.01795 8.54215 6.92364 8.63323H6.92214Z" fill="#007AFF"/>
<path id="Vector_2" d="M10.9713 1.03051C10.6459 0.70292 10.2588 0.443152 9.83229 0.26626C9.40581 0.0893691 8.94847 -0.00112823 8.48676 1.23204e-05C8.02529 -0.00121354 7.56816 0.0890514 7.14179 0.265588C6.71543 0.442125 6.32829 0.70143 6.00276 1.02851L4.36926 2.66001C4.27544 2.75377 4.2227 2.88095 4.22266 3.01359C4.22261 3.14622 4.27525 3.27344 4.36901 3.36726C4.46276 3.46108 4.58995 3.51382 4.72258 3.51386C4.85522 3.51391 4.98244 3.46127 5.07626 3.36751L6.70876 1.73651C6.94153 1.50234 7.21845 1.31666 7.52348 1.19024C7.8285 1.06382 8.15557 0.999163 8.48576 1.00001C8.98289 1.00018 9.46881 1.14773 9.8821 1.42401C10.2954 1.7003 10.6175 2.09291 10.8077 2.55222C10.9979 3.01153 11.0476 3.51692 10.9506 4.0045C10.8536 4.49208 10.6143 4.93996 10.2628 5.29151L8.63176 6.92251C8.53794 7.01633 8.48523 7.14358 8.48523 7.27626C8.48523 7.40895 8.53794 7.53619 8.63176 7.63001C8.72558 7.72383 8.85283 7.77654 8.98551 7.77654C9.11819 7.77654 9.24544 7.72383 9.33926 7.63001L10.9703 6.00001C11.6283 5.34056 11.9979 4.44706 11.9981 3.51547C11.9983 2.58387 11.629 1.69023 10.9713 1.03051Z" fill="#007AFF"/>
<path id="Vector_3" d="M7.14678 4.14622L4.14678 7.14622C4.09903 7.19234 4.06094 7.24751 4.03473 7.30851C4.00853 7.36951 3.99474 7.43513 3.99416 7.50151C3.99358 7.5679 4.00623 7.63374 4.03137 7.69519C4.05651 7.75664 4.09364 7.81247 4.14059 7.85941C4.18753 7.90636 4.24336 7.94349 4.30481 7.96863C4.36626 7.99377 4.4321 8.00642 4.49849 8.00584C4.56487 8.00526 4.63048 7.99147 4.69149 7.96527C4.75249 7.93906 4.80766 7.90097 4.85378 7.85321L7.85378 4.85322C7.94486 4.75891 7.99526 4.63261 7.99412 4.50151C7.99298 4.37042 7.9404 4.24501 7.84769 4.15231C7.75499 4.0596 7.62958 4.00702 7.49849 4.00588C7.36739 4.00474 7.24109 4.05514 7.14678 4.14622Z" fill="#007AFF"/>
</g>
<defs>
<clipPath id="clip0_7655_54918">
<rect width="12" height="12" fill="white"/>
</clipPath>
</defs>
</svg>
