<svg width="28" height="36" viewBox="0 0 28 36" fill="none" xmlns="http://www.w3.org/2000/svg">
<path d="M3.44442 18.0832C3.44442 18.6017 3.47684 19.1087 3.54167 19.604C3.60648 20.0994 3.70832 20.574 3.84721 21.0277C3.94907 21.4073 3.93056 21.78 3.79167 22.1457C3.65278 22.5115 3.41203 22.773 3.06942 22.9304C2.71759 23.0971 2.36344 23.104 2.00696 22.9513C1.65046 22.7985 1.41203 22.5415 1.29167 22.1804C1.06945 21.5045 0.909727 20.8286 0.812505 20.1527C0.715283 19.4767 0.666672 18.7869 0.666672 18.0832C0.666672 14.4165 1.97223 11.273 4.58334 8.65267C7.19445 6.03228 10.3333 4.72209 14 4.72209H15.2917L13.0973 2.52763C12.8473 2.27763 12.7223 1.97207 12.7223 1.61096C12.7223 1.24988 12.8473 0.944336 13.0973 0.694336C13.3472 0.444336 13.6574 0.319336 14.0278 0.319336C14.3982 0.319336 14.7083 0.444336 14.9583 0.694336L19.4305 5.13875C19.7083 5.41653 19.8472 5.74061 19.8472 6.111C19.8472 6.48136 19.7083 6.80543 19.4305 7.08321L14.9861 11.5276C14.7361 11.7776 14.4213 11.9026 14.0417 11.9026C13.662 11.9026 13.3472 11.7776 13.0973 11.5276C12.8473 11.2777 12.7223 10.9628 12.7223 10.5832C12.7223 10.2036 12.8473 9.88875 13.0973 9.63875L15.2361 7.49988H14C11.0926 7.49988 8.60648 8.5346 6.54167 10.604C4.47684 12.6735 3.44442 15.1665 3.44442 18.0832ZM24.5556 17.9999C24.5556 17.4813 24.5232 16.9744 24.4583 16.479C24.3935 15.9837 24.2917 15.4999 24.1528 15.0276C24.0324 14.648 24.0417 14.2753 24.1806 13.9096C24.3195 13.5439 24.5602 13.2823 24.9028 13.1249C25.2546 12.9582 25.6042 12.9513 25.9514 13.104C26.2986 13.2568 26.5324 13.5138 26.6528 13.8749C26.8935 14.5508 27.0671 15.2314 27.1736 15.9165C27.2801 16.6017 27.3333 17.2962 27.3333 17.9999C27.3333 21.6665 26.0278 24.8101 23.4167 27.4304C20.8056 30.0508 17.6667 31.361 14 31.361H12.6528L14.8472 33.5555C15.0972 33.8055 15.2222 34.111 15.2222 34.4721C15.2222 34.8332 15.0972 35.1388 14.8472 35.3888C14.5972 35.6387 14.287 35.7636 13.9167 35.7636C13.5463 35.7636 13.2361 35.6387 12.9861 35.3888L8.51388 30.9443C8.2361 30.6666 8.09721 30.3425 8.09721 29.9721C8.09721 29.6017 8.2361 29.2777 8.51388 28.9999L12.9861 24.5277C13.2361 24.2777 13.5463 24.1527 13.9167 24.1527C14.287 24.1527 14.5972 24.2777 14.8472 24.5277C15.0972 24.7777 15.2222 25.0879 15.2222 25.4582C15.2222 25.8286 15.0972 26.1388 14.8472 26.3888L12.6528 28.5832H14C16.9074 28.5832 19.3935 27.5485 21.4583 25.479C23.5232 23.4096 24.5556 20.9165 24.5556 17.9999Z" fill="white"/>
</svg>
