<svg width="28" height="28" viewBox="0 0 28 28" fill="none" xmlns="http://www.w3.org/2000/svg">
<circle cx="14" cy="14" r="14" fill="#FF7B1C"/>
<path d="M10.6663 16.3333H14.683C14.8719 16.3333 15.0275 16.2694 15.1497 16.1416C15.2719 16.0139 15.333 15.8555 15.333 15.6666C15.333 15.4778 15.2691 15.3194 15.1413 15.1916C15.0136 15.0639 14.8552 15 14.6663 15H10.6497C10.4608 15 10.3052 15.0639 10.183 15.1916C10.0608 15.3194 9.99967 15.4778 9.99967 15.6666C9.99967 15.8555 10.0636 16.0139 10.1913 16.1416C10.3191 16.2694 10.4775 16.3333 10.6663 16.3333ZM10.6663 14.3333H17.3497C17.5386 14.3333 17.6941 14.2694 17.8163 14.1416C17.9386 14.0139 17.9997 13.8555 17.9997 13.6666C17.9997 13.4778 17.9358 13.3194 17.808 13.1916C17.6802 13.0639 17.5219 13 17.333 13H10.6497C10.4608 13 10.3052 13.0639 10.183 13.1916C10.0608 13.3194 9.99967 13.4778 9.99967 13.6666C9.99967 13.8555 10.0636 14.0139 10.1913 14.1416C10.3191 14.2694 10.4775 14.3333 10.6663 14.3333ZM10.6663 12.3333H17.3497C17.5386 12.3333 17.6941 12.2694 17.8163 12.1416C17.9386 12.0139 17.9997 11.8555 17.9997 11.6666C17.9997 11.4778 17.9358 11.3194 17.808 11.1916C17.6802 11.0639 17.5219 11 17.333 11H10.6497C10.4608 11 10.3052 11.0639 10.183 11.1916C10.0608 11.3194 9.99967 11.4778 9.99967 11.6666C9.99967 11.8555 10.0636 12.0139 10.1913 12.1416C10.3191 12.2694 10.4775 12.3333 10.6663 12.3333ZM7.33301 20.05V9.66665C7.33301 9.29998 7.46356 8.98609 7.72467 8.72498C7.98579 8.46387 8.29967 8.33331 8.66634 8.33331H19.333C19.6997 8.33331 20.0136 8.46387 20.2747 8.72498C20.5358 8.98609 20.6663 9.29998 20.6663 9.66665V17.6666C20.6663 18.0333 20.5358 18.3472 20.2747 18.6083C20.0136 18.8694 19.6997 19 19.333 19H9.99967L8.46634 20.5333C8.25523 20.7444 8.01356 20.7916 7.74134 20.675C7.46912 20.5583 7.33301 20.35 7.33301 20.05ZM8.66634 18.45L9.44967 17.6666H19.333V9.66665H8.66634V18.45Z" fill="#FAFBFF"/>
</svg>
