<svg width="28" height="28" viewBox="0 0 28 28" fill="none" xmlns="http://www.w3.org/2000/svg">
<circle cx="14" cy="14" r="14" fill="#FF7B1C"/>
<path d="M14.0094 7.33261C10.3274 7.33261 7.34277 10.3173 7.34277 13.9993C7.34277 17.6813 10.3274 20.6659 14.0094 20.6659C17.6914 20.6659 20.6761 17.6813 20.6761 13.9993C20.6761 10.3173 17.6914 7.33261 14.0094 7.33261ZM16.6761 11.9993C16.8468 11.9993 17.0248 12.0566 17.1554 12.1866C17.4154 12.4473 17.4154 12.8846 17.1554 13.1453L14.6554 15.6246C13.8881 16.3913 12.7154 16.2766 12.1134 15.3739L11.4468 14.3739C11.2428 14.0679 11.3281 13.6413 11.6348 13.4366C11.9408 13.2326 12.3674 13.3179 12.5721 13.6246L13.2388 14.6246C13.3734 14.8266 13.5461 14.8586 13.7174 14.6866L16.1968 12.1866C16.3274 12.0566 16.5054 11.9993 16.6761 11.9993Z" fill="white"/>
</svg>
