<svg width="35" height="34" viewBox="0 0 35 34" fill="none" xmlns="http://www.w3.org/2000/svg">
<path d="M15.2502 23.2499L23.3752 18.0416C23.7641 17.7916 23.9585 17.4444 23.9585 16.9999C23.9585 16.5555 23.7641 16.2083 23.3752 15.9583L15.2502 10.7499C14.8335 10.4721 14.4099 10.4513 13.9793 10.6874C13.5488 10.9235 13.3335 11.2916 13.3335 11.7916V22.2083C13.3335 22.7083 13.5488 23.0763 13.9793 23.3124C14.4099 23.5485 14.8335 23.5277 15.2502 23.2499ZM17.5002 33.6666C15.1946 33.6666 13.0279 33.2291 11.0002 32.3541C8.97238 31.4791 7.2085 30.2916 5.7085 28.7916C4.2085 27.2916 3.021 25.5277 2.146 23.4999C1.271 21.4721 0.833496 19.3055 0.833496 16.9999C0.833496 14.6944 1.271 12.5277 2.146 10.4999C3.021 8.47214 4.2085 6.70825 5.7085 5.20825C7.2085 3.70825 8.97238 2.52075 11.0002 1.64575C13.0279 0.770752 15.1946 0.333252 17.5002 0.333252C19.8057 0.333252 21.9724 0.770752 24.0002 1.64575C26.0279 2.52075 27.7918 3.70825 29.2918 5.20825C30.7918 6.70825 31.9793 8.47214 32.8543 10.4999C33.7293 12.5277 34.1668 14.6944 34.1668 16.9999C34.1668 19.3055 33.7293 21.4721 32.8543 23.4999C31.9793 25.5277 30.7918 27.2916 29.2918 28.7916C27.7918 30.2916 26.0279 31.4791 24.0002 32.3541C21.9724 33.2291 19.8057 33.6666 17.5002 33.6666Z" fill="white"/>
</svg>
