<svg width="23" height="21" viewBox="0 0 20 18" fill="none" xmlns="http://www.w3.org/2000/svg">
<path fill-rule="evenodd" clip-rule="evenodd" d="M0.209073 0.366008C0.419184 0.151561 0.73897 0.0872215 1.01567 0.203725L19.5522 8.00858C19.8235 8.12282 20 8.38855 20 8.68294C20 8.97734 19.8235 9.24306 19.5522 9.35731L1.01567 17.1622C0.73897 17.2787 0.419184 17.2143 0.209073 16.9999C-0.00103713 16.7854 -0.0588314 16.4644 0.0632995 16.1901L3.40635 8.68294L0.0632995 1.17575C-0.0588314 0.901488 -0.00103713 0.580455 0.209073 0.366008ZM2.15267 2.2703L4.87575 8.38529C4.96012 8.57475 4.96012 8.79113 4.87575 8.9806L2.15267 15.0956L17.3827 8.68294L2.15267 2.2703Z" fill="#FF7B1C"/>
<path fill-rule="evenodd" clip-rule="evenodd" d="M3.4147 8.68312C3.4147 8.27901 3.7423 7.95142 4.14641 7.95142H19.2683C19.6724 7.95142 20 8.27901 20 8.68312C20 9.08723 19.6724 9.41482 19.2683 9.41482H4.14641C3.7423 9.41482 3.4147 9.08723 3.4147 8.68312Z" fill="#FF7B1C"/>
</svg>
