<svg width="20" height="20" viewBox="0 0 20 20" fill="none" xmlns="http://www.w3.org/2000/svg">
<path d="M10.0051 20C8.6327 20 7.3426 19.7358 6.13484 19.2074C4.93395 18.6859 3.87373 17.9653 2.95419 17.0458C2.03465 16.1263 1.31069 15.066 0.782295 13.8652C0.260765 12.6574 0 11.3673 0 9.99485C0 8.62927 0.260765 7.3426 0.782295 6.13484C1.30383 4.92709 2.02436 3.86344 2.9439 2.9439C3.8703 2.02436 4.93395 1.30383 6.13484 0.782295C7.3426 0.260765 8.62927 0 9.99485 0C11.3604 0 12.6471 0.260765 13.8549 0.782295C15.0626 1.30383 16.1263 2.02436 17.0458 2.9439C17.9653 3.86344 18.6859 4.92709 19.2074 6.13484C19.7358 7.3426 20 8.62927 20 9.99485C20 11.3673 19.7392 12.6574 19.2177 13.8652C18.6962 15.066 17.9756 16.1263 17.0561 17.0458C16.1366 17.9653 15.0729 18.6859 13.8652 19.2074C12.6574 19.7358 11.3707 20 10.0051 20ZM10.0051 18.1678C11.1374 18.1678 12.1976 17.9551 13.1858 17.5296C14.174 17.111 15.042 16.5277 15.79 15.7797C16.538 15.0317 17.1213 14.1637 17.5399 13.1755C17.9585 12.1873 18.1678 11.1271 18.1678 9.99485C18.1678 8.86258 17.9585 7.80237 17.5399 6.81421C17.1213 5.82604 16.538 4.95797 15.79 4.20998C15.042 3.462 14.1705 2.87871 13.1755 2.46011C12.1873 2.04152 11.1271 1.83222 9.99485 1.83222C8.86258 1.83222 7.80237 2.04152 6.81421 2.46011C5.8329 2.87871 4.96826 3.462 4.22028 4.20998C3.47229 4.95797 2.889 5.82604 2.47041 6.81421C2.05181 7.80237 1.84251 8.86258 1.84251 9.99485C1.84251 11.1271 2.05181 12.1873 2.47041 13.1755C2.889 14.1637 3.47229 15.0317 4.22028 15.7797C4.96826 16.5277 5.83634 17.111 6.8245 17.5296C7.81266 17.9551 8.87288 18.1678 10.0051 18.1678ZM10.0154 12.9902C9.46646 12.9902 8.96209 12.8564 8.50232 12.5888C8.04255 12.3212 7.67542 11.9609 7.40093 11.508C7.12644 11.0482 6.98919 10.537 6.98919 9.97427C6.98919 9.42529 7.12644 8.92434 7.40093 8.47144C7.67542 8.01167 8.04255 7.64797 8.50232 7.38034C8.96209 7.11271 9.46646 6.9789 10.0154 6.9789C10.5644 6.9789 11.0654 7.11271 11.5183 7.38034C11.978 7.64797 12.3452 8.01167 12.6197 8.47144C12.8942 8.92434 13.0314 9.42529 13.0314 9.97427C13.0314 10.537 12.8942 11.0482 12.6197 11.508C12.3452 11.9609 11.978 12.3212 11.5183 12.5888C11.0654 12.8564 10.5644 12.9902 10.0154 12.9902Z" fill="#C5C8D2"/>
</svg>