<svg width="14" height="15" viewBox="0 0 14 15" fill="none" xmlns="http://www.w3.org/2000/svg">
<path fill-rule="evenodd" clip-rule="evenodd" d="M6.41667 5.16675C6.41667 4.84475 6.67801 4.58342 7.00001 4.58342C7.32201 4.58342 7.58334 4.84475 7.58334 5.16675C7.58334 5.48875 7.32201 5.75008 7.00001 5.75008C6.67801 5.75008 6.41667 5.48875 6.41667 5.16675ZM6.41667 6.91675C6.41667 6.59475 6.67801 6.33342 7.00001 6.33342C7.32201 6.33342 7.58334 6.59475 7.58334 6.91675V9.83342C7.58334 10.1554 7.32201 10.4167 7.00001 10.4167C6.67801 10.4167 6.41667 10.1554 6.41667 9.83342V6.91675ZM7.00001 12.1667C4.42692 12.1667 2.33334 10.0732 2.33334 7.50008C2.33334 4.927 4.42692 2.83341 7.00001 2.83341C9.57309 2.83341 11.6667 4.927 11.6667 7.50008C11.6667 10.0732 9.57309 12.1667 7.00001 12.1667ZM7 1.66675C3.77826 1.66675 1.16667 4.27833 1.16667 7.50008C1.16667 10.7218 3.77826 13.3334 7 13.3334C10.2212 13.3334 12.8333 10.7218 12.8333 7.50008C12.8333 4.27833 10.2212 1.66675 7 1.66675Z" fill="#FF4949"/>
</svg>
