<svg width="24" height="24" viewBox="0 0 24 24" fill="none" xmlns="http://www.w3.org/2000/svg">
<path fill-rule="evenodd" clip-rule="evenodd" d="M11.76 6.68997C11.6104 6.7103 11.4594 6.66462 11.3462 6.56481C11.2329 6.465 11.1686 6.32091 11.17 6.16997C11.2086 5.21395 11.5599 4.29704 12.17 3.55997C12.8121 2.79697 13.6751 2.25193 14.64 1.99997C14.7945 1.96251 14.9576 1.9992 15.0811 2.09921C15.2046 2.19921 15.2745 2.35109 15.27 2.50997C15.2156 3.46873 14.8664 4.38728 14.27 5.13997C13.6566 5.95234 12.7611 6.50537 11.76 6.68997ZM17.18 12.51C17.18 9.78997 19.18 9.17997 19.18 8.58997C19.18 7.99997 17.45 6.67997 15.62 6.67997C13.79 6.67997 13.08 7.53997 11.84 7.53997C10.6 7.53997 9.59001 6.67997 8.05001 6.67997C6.32762 6.77494 4.76661 7.7243 3.89001 9.20997C3.26846 10.2837 2.96015 11.51 3.00001 12.75C3.00001 17.14 6.15001 22 8.47001 22C9.77001 22 10.1 21.15 11.89 21.15C13.68 21.15 14 22 15.22 22C17.74 22 19.84 17 19.84 16.93C19.8382 16.7313 19.7211 16.5518 19.54 16.47C18.076 15.6938 17.1661 14.1669 17.18 12.51Z" fill="white"/>
</svg>
