<svg width="21" height="20" viewBox="0 0 21 20" fill="none" xmlns="http://www.w3.org/2000/svg">
<path d="M7.99879 0.0141602C7.73379 0.0141602 7.4988 0.108166 7.3108 0.295166L5.59278 2.01416C5.30578 2.01416 4.99879 2.01416 4.99879 2.01416C2.78978 2.01416 0.998779 3.80516 0.998779 6.01416V15.0142C0.998779 17.2232 2.78978 19.0142 4.99879 19.0142H16.9988C19.2078 19.0142 20.9988 17.2232 20.9988 15.0142V6.01416C20.9988 3.80516 19.2078 2.01416 16.9988 2.01416H16.4368L14.7178 0.295166C14.5298 0.108166 14.2638 0.0141602 13.9988 0.0141602H7.99879ZM8.43678 2.01416H13.5928L15.3108 3.73315C15.4988 3.92015 15.7338 4.01416 15.9988 4.01416H16.9988C18.1038 4.01416 18.9988 4.90916 18.9988 6.01416V15.0142C18.9988 16.1192 18.1038 17.0142 16.9988 17.0142H4.99879C3.89378 17.0142 2.99878 16.1192 2.99878 15.0142V6.01416C2.99878 4.90916 3.89378 4.01416 4.99879 4.01416H5.99879C6.26379 4.01416 6.52978 3.92015 6.71778 3.73315L8.43678 2.01416ZM10.9988 5.01416C8.23779 5.01416 5.99879 7.25316 5.99879 10.0142C5.99879 12.7752 8.23779 15.0142 10.9988 15.0142C13.7598 15.0142 15.9988 12.7752 15.9988 10.0142C15.9988 7.25316 13.7598 5.01416 10.9988 5.01416ZM16.9988 5.01416C16.4468 5.01416 15.9988 5.46216 15.9988 6.01416C15.9988 6.56616 16.4468 7.01416 16.9988 7.01416C17.5508 7.01416 17.9988 6.56616 17.9988 6.01416C17.9988 5.46216 17.5508 5.01416 16.9988 5.01416ZM10.9988 7.01416C12.6558 7.01416 13.9988 8.35716 13.9988 10.0142C13.9988 11.6712 12.6558 13.0142 10.9988 13.0142C9.34179 13.0142 7.99879 11.6712 7.99879 10.0142C7.99879 8.35716 9.34179 7.01416 10.9988 7.01416Z" fill="white"/>
</svg>
