<svg width="19" height="17" viewBox="0 0 19 17" fill="none" xmlns="http://www.w3.org/2000/svg">
<path d="M4.83341 16.5001V5.66677L9.83341 0.708435C10.0417 0.500102 10.2883 0.378574 10.573 0.343852C10.8577 0.30913 11.132 0.361213 11.3959 0.500102C11.6598 0.638991 11.8542 0.833435 11.9792 1.08344C12.1042 1.33344 12.132 1.59038 12.0626 1.85427L11.1251 5.66677H16.5001C16.9445 5.66677 17.3334 5.83344 17.6667 6.16677C18.0001 6.5001 18.1667 6.88899 18.1667 7.33344V9.0001C18.1667 9.09732 18.1529 9.20149 18.1251 9.3126C18.0973 9.42371 18.0695 9.52788 18.0417 9.6251L15.5417 15.5001C15.4167 15.7779 15.2084 16.014 14.9167 16.2084C14.6251 16.4029 14.3195 16.5001 14.0001 16.5001H4.83341ZM6.50008 6.3751V14.8334H14.0001L16.5001 9.0001V7.33344H9.00008L10.1251 2.7501L6.50008 6.3751ZM2.33341 16.5001C1.87508 16.5001 1.48272 16.3369 1.15633 16.0105C0.829943 15.6841 0.666748 15.2918 0.666748 14.8334V7.33344C0.666748 6.8751 0.829943 6.48274 1.15633 6.15635C1.48272 5.82996 1.87508 5.66677 2.33341 5.66677H4.83341V7.33344H2.33341V14.8334H4.83341V16.5001H2.33341Z" fill="#6C6E76"/>
</svg>
