<?xml version="1.0" encoding="UTF-8"?>
<svg xmlns="http://www.w3.org/2000/svg" xmlns:xlink="http://www.w3.org/1999/xlink" width="185px" height="36px" viewBox="0 0 185 36" version="1.1">
<g id="surface1">
<path style=" stroke:none;fill-rule:nonzero;fill:rgb(97.254902%,62.352941%,10.196078%);fill-opacity:1;" d="M 93.863281 0.84375 C 95.796875 0.84375 97.734375 0.84375 99.726562 0.84375 C 99.726562 11.820312 99.726562 22.796875 99.726562 34.105469 C 82.800781 34.105469 82.800781 34.105469 79.40625 30.738281 C 76.675781 27.410156 76.199219 23.996094 76.472656 19.789062 C 76.855469 16.984375 78.601562 14.402344 80.75 12.636719 C 83.554688 10.582031 86.457031 9.992188 89.882812 10.316406 C 91.332031 10.617188 92.539062 11.125 93.863281 11.789062 C 93.863281 8.175781 93.863281 4.5625 93.863281 0.84375 Z M 84.015625 17.472656 C 82.5625 19.363281 82.171875 21.257812 82.4375 23.601562 C 82.746094 25.292969 83.578125 26.648438 84.851562 27.789062 C 86.085938 28.554688 87.417969 28.660156 88.835938 28.660156 C 88.972656 28.660156 89.113281 28.660156 89.253906 28.660156 C 89.542969 28.660156 89.832031 28.660156 90.121094 28.660156 C 90.5625 28.65625 91.007812 28.660156 91.449219 28.660156 C 91.730469 28.660156 92.011719 28.660156 92.292969 28.660156 C 92.550781 28.660156 92.804688 28.660156 93.066406 28.660156 C 93.632812 28.699219 93.632812 28.699219 93.863281 28.421875 C 93.894531 28.105469 93.910156 27.789062 93.921875 27.472656 C 93.933594 27.171875 93.933594 27.171875 93.945312 26.863281 C 93.96875 25.933594 93.988281 25.007812 94.003906 24.078125 C 94.015625 23.589844 94.027344 23.101562 94.046875 22.613281 C 94.28125 19.890625 94.28125 19.890625 93.367188 17.464844 C 92.765625 17.074219 92.238281 16.839844 91.558594 16.632812 C 91.28125 16.503906 91.003906 16.371094 90.730469 16.238281 C 88.371094 15.460938 85.832031 15.648438 84.015625 17.472656 Z M 84.015625 17.472656 "/>
<path style=" stroke:none;fill-rule:nonzero;fill:rgb(96.470588%,61.960784%,10.196078%);fill-opacity:1;" d="M 1.257812 0.84375 C 2.195312 0.835938 3.132812 0.832031 4.074219 0.828125 C 4.339844 0.828125 4.609375 0.824219 4.882812 0.824219 C 5.265625 0.824219 5.265625 0.824219 5.65625 0.820312 C 5.890625 0.820312 6.128906 0.820312 6.371094 0.816406 C 6.914062 0.84375 6.914062 0.84375 7.125 1.050781 C 7.148438 1.382812 7.160156 1.710938 7.167969 2.042969 C 7.171875 2.253906 7.175781 2.464844 7.179688 2.679688 C 7.183594 2.910156 7.1875 3.140625 7.191406 3.375 C 7.195312 3.609375 7.199219 3.84375 7.203125 4.082031 C 7.214844 4.832031 7.230469 5.582031 7.242188 6.328125 C 7.25 6.835938 7.257812 7.339844 7.269531 7.847656 C 7.292969 9.089844 7.3125 10.335938 7.332031 11.578125 C 7.609375 11.46875 7.609375 11.46875 7.890625 11.355469 C 8.136719 11.261719 8.378906 11.164062 8.628906 11.066406 C 8.871094 10.96875 9.109375 10.875 9.359375 10.777344 C 12.40625 9.683594 16.003906 10.179688 18.882812 11.5 C 21.460938 12.875 23.289062 15.023438 24.339844 17.746094 C 25.429688 21.34375 25.324219 25.378906 23.660156 28.777344 C 21.945312 31.777344 19.390625 33.414062 16.132812 34.316406 C 12.882812 35.054688 9.378906 34.722656 6.457031 33.132812 C 3.636719 31.285156 2.175781 28.75 1.390625 25.53125 C 1.183594 24.464844 1.175781 23.433594 1.1875 22.351562 C 1.1875 22.117188 1.183594 21.882812 1.183594 21.640625 C 1.1875 20.875 1.191406 20.109375 1.195312 19.34375 C 1.195312 18.8125 1.199219 18.277344 1.199219 17.742188 C 1.199219 16.484375 1.207031 15.226562 1.210938 13.972656 C 1.21875 12.539062 1.222656 11.105469 1.226562 9.671875 C 1.230469 6.730469 1.242188 3.785156 1.257812 0.84375 Z M 7.125 18.316406 C 7.035156 19.15625 7.046875 19.996094 7.046875 20.839844 C 7.042969 21.253906 7.039062 21.671875 7.03125 22.085938 C 7.023438 24.253906 7.355469 26.066406 8.859375 27.691406 C 10.207031 28.855469 11.746094 29.121094 13.476562 29.097656 C 15.132812 28.964844 16.65625 28.394531 17.808594 27.15625 C 19.183594 24.984375 19.4375 22.496094 18.9375 19.988281 C 18.359375 18.351562 17.199219 17.113281 15.660156 16.328125 C 12.636719 15.167969 9.390625 16.035156 7.125 18.316406 Z M 7.125 18.316406 "/>
<path style=" stroke:none;fill-rule:nonzero;fill:rgb(96.470588%,61.960784%,10.196078%);fill-opacity:1;" d="M 144.984375 12.210938 C 148.054688 14.550781 149.660156 17.453125 150.222656 21.261719 C 150.554688 24.570312 149.523438 27.710938 147.574219 30.355469 C 145.734375 32.542969 143.367188 33.917969 140.582031 34.527344 C 136.90625 34.816406 133.976562 34.449219 130.945312 32.210938 C 130.722656 32.050781 130.722656 32.050781 130.496094 31.890625 C 128.101562 30.011719 126.984375 27.1875 126.390625 24.289062 C 126.097656 20.324219 126.945312 16.867188 129.558594 13.8125 C 133.746094 9.613281 140.015625 9.148438 144.984375 12.210938 Z M 134.089844 17.472656 C 132.722656 18.824219 132.183594 20.464844 132.148438 22.355469 C 132.175781 24.34375 132.773438 26.074219 134.089844 27.578125 C 135.449219 28.71875 137.003906 29.15625 138.761719 29.121094 C 140.171875 28.953125 141.703125 28.429688 142.679688 27.367188 C 144.058594 25.410156 144.570312 23.660156 144.355469 21.261719 C 143.941406 19.152344 142.945312 17.679688 141.210938 16.421875 C 138.746094 15.222656 136.0625 15.65625 134.089844 17.472656 Z M 134.089844 17.472656 "/>
<path style=" stroke:none;fill-rule:nonzero;fill:rgb(96.470588%,61.960784%,10.196078%);fill-opacity:1;" d="M 103.5 0.84375 C 104.210938 0.824219 104.921875 0.8125 105.632812 0.800781 C 105.835938 0.796875 106.035156 0.792969 106.242188 0.785156 C 108.183594 0.765625 108.183594 0.765625 108.945312 1.472656 C 109.355469 2.296875 109.421875 2.984375 109.429688 3.898438 C 109.4375 4.160156 109.441406 4.425781 109.445312 4.695312 C 109.453125 5.246094 109.460938 5.796875 109.464844 6.347656 C 109.515625 8.664062 109.769531 10.304688 111.398438 12.011719 C 112.773438 13.1875 114.277344 13.402344 116.042969 13.34375 C 117.414062 13.171875 118.667969 12.574219 119.632812 11.578125 C 121.28125 9.265625 121.171875 6.554688 121.144531 3.820312 C 121.171875 1.847656 121.171875 1.847656 121.804688 1.207031 C 122.726562 0.617188 123.792969 0.730469 124.84375 0.777344 C 125.046875 0.78125 125.25 0.785156 125.460938 0.789062 C 125.964844 0.804688 126.464844 0.820312 126.964844 0.84375 C 126.984375 2.019531 127 3.199219 127.011719 4.378906 C 127.015625 4.78125 127.019531 5.179688 127.027344 5.578125 C 127.097656 9.574219 126.519531 12.820312 123.679688 15.855469 C 122.078125 17.375 120.507812 18.203125 118.375 18.738281 C 118.375 23.808594 118.375 28.878906 118.375 34.105469 C 116.371094 34.105469 114.363281 34.105469 112.300781 34.105469 C 112.089844 33.894531 112.089844 33.894531 112.0625 33.292969 C 112.066406 33.023438 112.066406 32.757812 112.066406 32.480469 C 112.066406 32.332031 112.066406 32.183594 112.066406 32.03125 C 112.066406 31.539062 112.066406 31.050781 112.070312 30.558594 C 112.070312 30.21875 112.070312 29.878906 112.070312 29.539062 C 112.070312 28.644531 112.074219 27.75 112.074219 26.855469 C 112.078125 25.941406 112.078125 25.027344 112.078125 24.113281 C 112.082031 22.320312 112.085938 20.53125 112.089844 18.738281 C 111.960938 18.695312 111.832031 18.652344 111.695312 18.609375 C 111.441406 18.523438 111.441406 18.523438 111.183594 18.4375 C 111.015625 18.382812 110.847656 18.328125 110.671875 18.269531 C 108.046875 17.34375 106.019531 15.273438 104.757812 12.84375 C 103.875 10.855469 103.464844 9.132812 103.480469 6.96875 C 103.480469 6.792969 103.480469 6.617188 103.480469 6.4375 C 103.480469 5.878906 103.484375 5.320312 103.488281 4.761719 C 103.488281 4.382812 103.488281 4.003906 103.488281 3.625 C 103.492188 2.695312 103.496094 1.769531 103.5 0.84375 Z M 103.5 0.84375 "/>
<path style=" stroke:none;fill-rule:nonzero;fill:rgb(96.862745%,61.960784%,10.196078%);fill-opacity:1;" d="M 29.699219 10.707031 C 29.941406 10.707031 30.1875 10.707031 30.4375 10.707031 C 30.695312 10.707031 30.953125 10.710938 31.21875 10.710938 C 31.601562 10.710938 31.601562 10.710938 31.996094 10.707031 C 32.363281 10.707031 32.363281 10.707031 32.738281 10.707031 C 32.960938 10.710938 33.1875 10.710938 33.421875 10.710938 C 33.941406 10.738281 33.941406 10.738281 34.152344 10.949219 C 34.171875 11.402344 34.179688 11.859375 34.179688 12.316406 C 34.179688 12.53125 34.179688 12.53125 34.183594 12.75 C 34.183594 13.0625 34.183594 13.375 34.1875 13.6875 C 34.1875 14.179688 34.191406 14.675781 34.195312 15.171875 C 34.207031 16.578125 34.214844 17.984375 34.21875 19.394531 C 34.222656 20.253906 34.226562 21.113281 34.234375 21.972656 C 34.238281 22.300781 34.238281 22.628906 34.238281 22.953125 C 34.21875 25.394531 34.21875 25.394531 35.199219 27.578125 C 37.335938 28.96875 39.472656 28.421875 42.113281 28.421875 C 42.179688 22.585938 42.25 16.75 42.320312 10.738281 C 44.1875 10.738281 46.054688 10.738281 47.976562 10.738281 C 47.976562 18.449219 47.976562 26.160156 47.976562 34.105469 C 46.101562 34.117188 44.226562 34.132812 42.296875 34.144531 C 41.417969 34.152344 41.417969 34.152344 40.519531 34.164062 C 40.046875 34.164062 39.574219 34.164062 39.097656 34.167969 C 38.859375 34.171875 38.621094 34.171875 38.375 34.175781 C 35.195312 34.179688 32.515625 33.582031 30.164062 31.382812 C 27.933594 29.035156 28.25 25.460938 28.257812 22.449219 C 28.257812 22.117188 28.257812 21.785156 28.253906 21.453125 C 28.253906 20.761719 28.257812 20.070312 28.257812 19.378906 C 28.257812 18.488281 28.257812 17.601562 28.257812 16.714844 C 28.253906 16.03125 28.253906 15.347656 28.257812 14.664062 C 28.257812 14.335938 28.257812 14.007812 28.253906 13.679688 C 28.253906 13.222656 28.257812 12.769531 28.257812 12.3125 C 28.257812 12.054688 28.257812 11.792969 28.257812 11.527344 C 28.304688 10.492188 28.78125 10.710938 29.699219 10.707031 Z M 29.699219 10.707031 "/>
<path style=" stroke:none;fill-rule:nonzero;fill:rgb(97.647059%,62.745098%,10.196078%);fill-opacity:1;" d="M 153.574219 10.738281 C 155.441406 10.738281 157.304688 10.738281 159.230469 10.738281 C 159.234375 11.167969 159.234375 11.597656 159.238281 12.039062 C 159.25 13.46875 159.265625 14.894531 159.277344 16.320312 C 159.289062 17.183594 159.296875 18.050781 159.300781 18.914062 C 159.308594 19.75 159.316406 20.585938 159.328125 21.421875 C 159.332031 21.738281 159.332031 22.054688 159.335938 22.371094 C 159.277344 25.222656 159.277344 25.222656 160.539062 27.671875 C 162.679688 28.894531 164.640625 28.421875 167.191406 28.421875 C 167.261719 22.585938 167.328125 16.75 167.402344 10.738281 C 169.269531 10.738281 171.132812 10.738281 173.058594 10.738281 C 173.058594 18.449219 173.058594 26.160156 173.058594 34.105469 C 159.140625 34.105469 159.140625 34.105469 155.929688 32.050781 C 153.871094 29.984375 153.507812 27.480469 153.5 24.664062 C 153.5 24.152344 153.507812 23.644531 153.511719 23.132812 C 153.511719 22.773438 153.515625 22.414062 153.515625 22.054688 C 153.515625 21.117188 153.523438 20.183594 153.53125 19.246094 C 153.535156 18.285156 153.539062 17.324219 153.542969 16.367188 C 153.550781 14.488281 153.558594 12.613281 153.574219 10.738281 Z M 153.574219 10.738281 "/>
<path style=" stroke:none;fill-rule:nonzero;fill:rgb(96.078431%,61.568627%,10.196078%);fill-opacity:1;" d="M 64.53125 0.84375 C 65.46875 0.835938 66.40625 0.832031 67.34375 0.828125 C 67.613281 0.828125 67.882812 0.824219 68.15625 0.824219 C 68.539062 0.824219 68.539062 0.824219 68.929688 0.820312 C 69.164062 0.820312 69.402344 0.820312 69.644531 0.816406 C 70.1875 0.84375 70.1875 0.84375 70.394531 1.050781 C 70.417969 1.378906 70.425781 1.707031 70.425781 2.035156 C 70.429688 2.25 70.429688 2.460938 70.429688 2.679688 C 70.429688 2.917969 70.433594 3.152344 70.433594 3.394531 C 70.433594 3.640625 70.433594 3.886719 70.4375 4.140625 C 70.441406 4.820312 70.445312 5.5 70.445312 6.175781 C 70.449219 6.886719 70.453125 7.59375 70.457031 8.304688 C 70.472656 10.722656 70.484375 13.140625 70.496094 15.558594 C 70.503906 16.894531 70.507812 18.226562 70.519531 19.5625 C 70.523438 20.269531 70.527344 20.976562 70.527344 21.679688 C 70.53125 22.46875 70.535156 23.257812 70.542969 24.046875 C 70.542969 24.28125 70.542969 24.515625 70.542969 24.753906 C 70.550781 26.316406 70.550781 26.316406 71.023438 27.789062 C 71.550781 28.070312 71.550781 28.070312 72.191406 28.171875 C 72.398438 28.214844 72.605469 28.261719 72.820312 28.308594 C 73.683594 28.445312 74.554688 28.535156 75.425781 28.632812 C 75.425781 30.4375 75.425781 32.246094 75.425781 34.105469 C 72.410156 34.207031 69.328125 34.195312 66.84375 32.21875 C 65.082031 30.460938 64.527344 28.0625 64.453125 25.628906 C 64.453125 25.164062 64.453125 24.703125 64.457031 24.242188 C 64.457031 23.984375 64.457031 23.730469 64.457031 23.46875 C 64.457031 22.777344 64.460938 22.089844 64.464844 21.398438 C 64.46875 20.675781 64.46875 19.949219 64.472656 19.226562 C 64.472656 17.859375 64.476562 16.492188 64.484375 15.125 C 64.492188 13.566406 64.496094 12.007812 64.5 10.449219 C 64.503906 7.246094 64.515625 4.042969 64.53125 0.84375 Z M 64.53125 0.84375 "/>
<path style=" stroke:none;fill-rule:nonzero;fill:rgb(94.901961%,60.784314%,9.803922%);fill-opacity:1;" d="M 177.457031 0.84375 C 179.324219 0.84375 181.191406 0.84375 183.113281 0.84375 C 183.324219 1.050781 183.324219 1.050781 183.351562 1.4375 C 183.347656 1.691406 183.347656 1.691406 183.347656 1.949219 C 183.347656 2.140625 183.351562 2.335938 183.351562 2.535156 C 183.347656 2.75 183.347656 2.960938 183.347656 3.183594 C 183.347656 3.40625 183.347656 3.628906 183.347656 3.863281 C 183.347656 4.605469 183.347656 5.347656 183.34375 6.09375 C 183.34375 6.605469 183.34375 7.121094 183.34375 7.636719 C 183.34375 8.992188 183.339844 10.347656 183.339844 11.703125 C 183.335938 13.085938 183.335938 14.46875 183.335938 15.851562 C 183.332031 18.570312 183.328125 21.285156 183.324219 24 C 182.542969 24.222656 182.542969 24.222656 182.039062 24.117188 C 180.515625 23.816406 178.992188 24.039062 177.457031 24.210938 C 177.457031 16.5 177.457031 8.789062 177.457031 0.84375 Z M 177.457031 0.84375 "/>
<path style=" stroke:none;fill-rule:nonzero;fill:rgb(97.254902%,62.352941%,10.196078%);fill-opacity:1;" d="M 53.84375 13.683594 C 54.234375 13.734375 54.621094 13.785156 55.007812 13.839844 C 56.230469 13.972656 57.476562 13.96875 58.691406 13.777344 C 58.886719 13.746094 59.085938 13.714844 59.292969 13.683594 C 59.6875 14.082031 59.527344 14.660156 59.53125 15.1875 C 59.53125 15.375 59.527344 15.558594 59.527344 15.75 C 59.527344 15.945312 59.53125 16.140625 59.53125 16.339844 C 59.53125 16.988281 59.53125 17.636719 59.53125 18.28125 C 59.53125 18.730469 59.53125 19.179688 59.53125 19.625 C 59.53125 20.566406 59.53125 21.503906 59.527344 22.445312 C 59.527344 23.652344 59.527344 24.859375 59.53125 26.066406 C 59.53125 26.988281 59.53125 27.914062 59.53125 28.839844 C 59.53125 29.285156 59.53125 29.730469 59.53125 30.175781 C 59.53125 30.796875 59.53125 31.417969 59.527344 32.039062 C 59.527344 32.222656 59.53125 32.410156 59.53125 32.601562 C 59.527344 33.871094 59.527344 33.871094 59.292969 34.105469 C 58.886719 34.125 58.484375 34.128906 58.082031 34.125 C 57.710938 34.125 57.710938 34.125 57.335938 34.125 C 57.078125 34.121094 56.820312 34.121094 56.554688 34.117188 C 56.167969 34.117188 56.167969 34.117188 55.769531 34.117188 C 55.128906 34.113281 54.488281 34.109375 53.84375 34.105469 C 53.648438 31.707031 53.605469 29.324219 53.609375 26.917969 C 53.605469 26.539062 53.605469 26.160156 53.605469 25.785156 C 53.605469 25 53.605469 24.21875 53.609375 23.433594 C 53.609375 22.429688 53.609375 21.425781 53.605469 20.417969 C 53.605469 19.644531 53.605469 18.867188 53.605469 18.09375 C 53.609375 17.722656 53.605469 17.351562 53.605469 16.980469 C 53.605469 16.464844 53.605469 15.949219 53.609375 15.433594 C 53.609375 15.28125 53.605469 15.125 53.605469 14.96875 C 53.613281 13.917969 53.613281 13.917969 53.84375 13.683594 Z M 53.84375 13.683594 "/>
<path style=" stroke:none;fill-rule:nonzero;fill:rgb(94.509804%,60.784314%,9.803922%);fill-opacity:1;" d="M 58.53125 4.117188 C 59.355469 4.605469 59.875 5.171875 60.128906 6.105469 C 60.269531 7.277344 60.417969 8.570312 59.75 9.605469 C 59.597656 9.769531 59.449219 9.933594 59.292969 10.105469 C 59.203125 10.226562 59.109375 10.347656 59.015625 10.472656 C 57.980469 11.246094 56.824219 11.226562 55.597656 11.058594 C 54.703125 10.859375 54.128906 10.492188 53.582031 9.75 C 52.945312 8.648438 52.804688 7.570312 53.007812 6.316406 C 53.371094 5.292969 54 4.597656 54.890625 4 C 56.09375 3.597656 57.363281 3.601562 58.53125 4.117188 Z M 58.53125 4.117188 "/>
<path style=" stroke:none;fill-rule:nonzero;fill:rgb(95.294118%,61.176471%,9.803922%);fill-opacity:1;" d="M 182.550781 27.289062 C 183.40625 28.050781 183.878906 28.695312 184.023438 29.828125 C 184.0625 30.976562 184.007812 31.878906 183.324219 32.84375 C 182.453125 33.722656 181.695312 34.132812 180.457031 34.171875 C 179.359375 34.15625 178.539062 33.941406 177.667969 33.261719 C 176.777344 32.191406 176.699219 31.246094 176.75 29.867188 C 176.90625 28.6875 177.351562 28.046875 178.28125 27.289062 C 179.6875 26.539062 181.128906 26.585938 182.550781 27.289062 Z M 182.550781 27.289062 "/>
<path style=" stroke:none;fill-rule:nonzero;fill:rgb(94.901961%,60.784314%,9.803922%);fill-opacity:1;" d="M 117.195312 4.117188 C 118.015625 4.601562 118.53125 5.179688 118.792969 6.105469 C 118.953125 7.464844 118.992188 8.75 118.164062 9.894531 C 117.308594 10.753906 116.402344 11.144531 115.183594 11.164062 C 114.085938 11.089844 113.351562 10.851562 112.507812 10.105469 C 111.578125 8.898438 111.488281 7.816406 111.671875 6.316406 C 112.039062 5.203125 112.636719 4.671875 113.554688 4 C 114.757812 3.597656 116.027344 3.601562 117.195312 4.117188 Z M 117.195312 4.117188 "/>
<path style=" stroke:none;fill-rule:nonzero;fill:rgb(27.058824%,17.254902%,2.745098%);fill-opacity:1;" d="M 53.84375 13.683594 C 54.050781 13.753906 54.257812 13.824219 54.472656 13.894531 C 54.335938 14.035156 54.195312 14.171875 54.054688 14.316406 C 54.007812 14.847656 53.988281 15.359375 53.988281 15.890625 C 53.984375 16.050781 53.984375 16.214844 53.980469 16.382812 C 53.976562 16.917969 53.972656 17.457031 53.96875 17.996094 C 53.964844 18.367188 53.960938 18.738281 53.957031 19.113281 C 53.945312 20.09375 53.9375 21.074219 53.929688 22.054688 C 53.921875 23.054688 53.910156 24.054688 53.898438 25.054688 C 53.878906 27.019531 53.859375 28.984375 53.84375 30.949219 C 53.777344 30.949219 53.707031 30.949219 53.636719 30.949219 C 53.628906 28.726562 53.625 26.507812 53.625 24.289062 C 53.625 23.257812 53.621094 22.226562 53.621094 21.195312 C 53.617188 20.203125 53.617188 19.207031 53.617188 18.214844 C 53.613281 17.835938 53.613281 17.453125 53.613281 17.074219 C 53.613281 16.542969 53.613281 16.015625 53.613281 15.484375 C 53.609375 15.324219 53.609375 15.167969 53.609375 15.003906 C 53.613281 13.917969 53.613281 13.917969 53.84375 13.683594 Z M 53.84375 13.683594 "/>
<path style=" stroke:none;fill-rule:nonzero;fill:rgb(63.529412%,40.784314%,6.666667%);fill-opacity:1;" d="M 81.292969 12.210938 C 81.429688 12.28125 81.566406 12.347656 81.710938 12.421875 C 80.671875 13.464844 79.636719 14.503906 78.566406 15.578125 C 78.566406 14.484375 79.511719 13.804688 80.242188 13.050781 C 80.582031 12.761719 80.929688 12.472656 81.292969 12.210938 Z M 81.292969 12.210938 "/>
<path style=" stroke:none;fill-rule:nonzero;fill:rgb(66.27451%,42.745098%,6.666667%);fill-opacity:1;" d="M 131.15625 12.421875 C 131.292969 12.492188 131.433594 12.558594 131.574219 12.632812 C 130.8125 13.394531 130.054688 14.160156 129.269531 14.949219 C 129.132812 14.878906 128.992188 14.808594 128.851562 14.738281 C 129.558594 13.867188 130.246094 13.09375 131.15625 12.421875 Z M 131.15625 12.421875 "/>
<path style=" stroke:none;fill-rule:nonzero;fill:rgb(67.843137%,43.529412%,6.666667%);fill-opacity:1;" d="M 178.085938 27.367188 C 178.292969 27.4375 178.5 27.507812 178.714844 27.578125 C 178.230469 28.066406 177.746094 28.550781 177.246094 29.050781 C 177.246094 28.230469 177.5625 27.976562 178.085938 27.367188 Z M 178.085938 27.367188 "/>
</g>
</svg>
