<svg width="141" height="57" viewBox="0 0 141 57" fill="none" xmlns="http://www.w3.org/2000/svg">
<path d="M71.539 15.125H76.0083V40.4753C63.108 40.4753 63.108 40.4753 60.5212 37.9091C58.4397 35.3726 58.0762 32.7706 58.285 29.5642C58.5761 27.4263 59.9076 25.4584 61.5448 24.1132C63.6826 22.5469 65.8944 22.0973 68.5056 22.345C69.61 22.5736 70.5299 22.9608 71.539 23.4669V15.125ZM64.034 27.799C62.9258 29.2395 62.6286 30.6838 62.8305 32.4703C63.0668 33.7591 63.7002 34.7918 64.6712 35.6615C65.6117 36.2453 66.6269 36.3253 67.7076 36.3253H68.687C69.0239 36.3223 69.363 36.3253 69.6991 36.3253H70.9316C71.3637 36.3558 71.3637 36.3558 71.539 36.1439C71.5634 35.9023 71.5748 35.6615 71.584 35.4199L71.6015 34.9557C71.6198 34.2469 71.6343 33.5419 71.6465 32.8331C71.6556 32.4611 71.664 32.0892 71.6792 31.7165C71.8576 29.6419 71.8576 29.6419 71.161 27.7929C70.736 27.5137 70.2715 27.2999 69.783 27.1588C69.5715 27.0602 69.3609 26.9599 69.1511 26.8577C67.3532 26.2655 65.4181 26.408 64.034 27.799Z" fill="#F89F1A"/>
<path d="M0.958564 15.124C1.67271 15.1179 2.38762 15.1149 3.10481 15.1118C3.30755 15.1118 3.51257 15.1088 3.7214 15.1088C4.01331 15.1088 4.01331 15.1088 4.31055 15.1057C4.48966 15.1057 4.67106 15.1057 4.8555 15.1027C5.26935 15.124 5.26935 15.124 5.43017 15.2818C5.4477 15.5348 5.45685 15.7848 5.46294 16.0379C5.4689 16.3763 5.47475 16.7147 5.48047 17.0531L5.48962 17.5919C5.49876 18.1635 5.5102 18.7352 5.5201 19.3037C5.52544 19.6909 5.53154 20.075 5.54068 20.4622C5.55821 21.4088 5.57346 22.3585 5.58794 23.3051L6.01399 23.1351C6.20148 23.0642 6.38592 22.9903 6.57646 22.9149C6.7609 22.8409 6.9423 22.7693 7.13284 22.6946C9.45515 21.8615 12.1974 22.2396 14.3917 23.2456C16.3565 24.2936 17.7498 25.9307 18.5508 28.0061C19.3815 30.7484 19.3008 33.8237 18.0325 36.4135C16.7254 38.7 14.7781 39.9477 12.2957 40.6359C9.8187 41.1984 7.14808 40.9453 4.92105 39.7335C2.77175 38.325 1.65823 36.3929 1.05993 33.9395C0.902164 33.1271 0.896067 32.3413 0.904451 31.5159C0.904451 31.3375 0.902164 31.1592 0.902164 30.9747L0.910548 29.224C0.910548 28.8186 0.913597 28.4108 0.913597 28.003C0.913597 27.0442 0.919694 26.0862 0.922743 25.1297C0.92884 24.0375 0.931889 22.9446 0.934937 21.8524C0.937224 19.6101 0.94637 17.3655 0.957802 15.124H0.958564ZM5.43017 28.4405C5.36158 29.0807 5.37072 29.721 5.37072 30.3642C5.36767 30.6798 5.36462 30.9983 5.35853 31.3139C5.35243 32.9662 5.60547 34.3473 6.75176 35.5858C7.77915 36.473 8.95212 36.6757 10.2714 36.6582C11.5336 36.5568 12.6951 36.1224 13.5731 35.178C14.6211 33.5226 14.8139 31.6264 14.4328 29.7149C13.9923 28.468 13.1082 27.5236 11.9352 26.9253C9.63121 26.0412 7.15647 26.702 5.43017 28.4405ZM110.501 23.7868C112.841 25.5702 114.065 27.7828 114.494 30.6859C114.747 33.2071 113.961 35.601 112.475 37.6162C111.073 39.2838 109.269 40.3318 107.146 40.7959C104.344 41.017 102.112 40.7365 99.8011 39.0308C99.6319 38.9088 99.6319 38.9088 99.4589 38.7869C97.6343 37.354 96.7822 35.2024 96.3302 32.9929C96.1069 29.971 96.7524 27.3362 98.7447 25.0077C101.936 21.8074 106.715 21.453 110.501 23.7875V23.7868ZM102.198 27.798C101.156 28.8277 100.745 30.0784 100.718 31.5189C100.739 33.0348 101.194 34.3541 102.198 35.4997C103.235 36.3685 104.419 36.7024 105.759 36.6757C106.834 36.5476 108 36.149 108.745 35.3389C109.796 33.8473 110.186 32.5135 110.022 30.6859C109.706 29.0777 108.947 27.9558 107.625 26.997C105.747 26.0824 103.701 26.4139 102.198 27.798ZM78.8835 15.124C79.4247 15.1088 79.9673 15.1004 80.5092 15.0913C80.664 15.0882 80.8156 15.0852 80.9742 15.0791C82.4527 15.0638 82.4528 15.0638 83.0335 15.6034C83.346 16.2315 83.3971 16.7551 83.4032 17.4517C83.4085 17.6514 83.4116 17.8541 83.4146 18.0591C83.4207 18.4791 83.4268 18.899 83.4298 19.319C83.4679 21.0841 83.6623 22.3348 84.9031 23.6359C85.9511 24.5314 87.0981 24.6953 88.4433 24.6511C89.4883 24.52 90.444 24.0642 91.1795 23.3051C92.4356 21.543 92.3525 19.4767 92.3319 17.3922C92.3525 15.8892 92.3525 15.8892 92.8349 15.4007C93.5376 14.951 94.3501 15.0371 95.1511 15.073L95.6214 15.0821C96.0055 15.0943 96.3866 15.1057 96.7677 15.124C96.7829 16.0203 96.7944 16.9189 96.8035 17.8183C96.8066 18.1247 96.8096 18.428 96.8149 18.7329C96.8683 21.7777 96.4285 24.2517 94.264 26.5648C93.043 27.7233 91.8464 28.3544 90.2207 28.7622V40.4743H85.5913C85.4305 40.3143 85.4305 40.3143 85.4092 39.8554C85.4122 39.6496 85.4122 39.4477 85.4122 39.2358V38.8936C85.4122 38.5186 85.4122 38.1467 85.4153 37.7717V36.9943C85.4153 36.3129 85.4183 35.6308 85.4183 34.9486C85.4214 34.252 85.4214 33.5554 85.4214 32.8588L85.4305 28.7622C85.3305 28.7285 85.2301 28.6957 85.1295 28.6638L84.74 28.5328L84.3498 28.4055C82.3491 27.6997 80.8042 26.1213 79.8423 24.27C79.1694 22.754 78.8569 21.4416 78.8683 19.7923V19.3868C78.8683 18.9615 78.8714 18.5355 78.8744 18.1102V17.2436L78.8835 15.124Z" fill="#F69E1A"/>
<path d="M22.636 22.6427H23.1985C23.3944 22.6427 23.591 22.6457 23.793 22.6457C24.0856 22.6457 24.0856 22.6457 24.3859 22.6427H24.9514C25.1214 22.6457 25.2944 22.6457 25.4728 22.6457C25.8691 22.6663 25.8691 22.6663 26.0291 22.8271C26.0444 23.1724 26.0505 23.5207 26.0505 23.869C26.0505 24.0328 26.0505 24.0328 26.0535 24.1998C26.0535 24.4383 26.0535 24.6761 26.0566 24.9147C26.0566 25.2896 26.0589 25.6677 26.0619 26.0457C26.0711 27.1173 26.0772 28.1889 26.0802 29.2643C26.0833 29.919 26.0863 30.5737 26.0916 31.2292C26.0947 31.4792 26.0947 31.7292 26.0947 31.9761C26.0794 33.8373 26.0794 33.8373 26.8271 35.5011C28.4559 36.5605 30.0846 36.1444 32.0967 36.1444C32.1478 31.6964 32.2011 27.2484 32.2545 22.6663H36.566V40.4757C35.137 40.4849 33.7079 40.4971 32.237 40.5062C31.567 40.5116 31.567 40.5116 30.8826 40.5215C30.5221 40.5215 30.1616 40.5215 29.7988 40.5237C29.6166 40.5268 29.4352 40.5268 29.2478 40.5298C26.8241 40.5329 24.7815 40.0771 22.9904 38.4011C21.29 36.6116 21.5309 33.8876 21.537 31.592C21.537 31.3389 21.537 31.0859 21.5339 30.8329C21.5339 30.3062 21.537 29.7788 21.537 29.2521V27.2217C21.5339 26.7004 21.5339 26.1799 21.537 25.6593C21.537 25.4078 21.537 25.1586 21.5339 24.9086C21.5339 24.5603 21.537 24.215 21.537 23.8667V23.2676C21.5728 22.4788 21.9356 22.6457 22.6352 22.6427H22.636Z" fill="#F79E1A"/>
<path d="M117.048 22.665H121.359C121.362 22.9928 121.362 23.3205 121.365 23.6566C121.374 24.7465 121.387 25.8333 121.396 26.9194C121.404 27.5779 121.41 28.238 121.413 28.8965C121.419 29.5336 121.425 30.1708 121.434 30.808C121.437 31.0488 121.437 31.2904 121.44 31.532C121.395 33.7042 121.395 33.7042 122.357 35.5715C123.988 36.5036 125.483 36.1431 127.427 36.1431C127.48 31.6951 127.531 27.2472 127.588 22.665H131.899V40.4745C121.291 40.4745 121.291 40.4745 118.843 38.909C117.275 37.3336 116.998 35.4259 116.992 33.2789C116.992 32.8887 116.998 32.5015 117.001 32.112C117.001 31.8377 117.004 31.564 117.004 31.2904C117.004 30.5755 117.009 29.8644 117.016 29.1495L117.025 26.9552C117.031 25.5231 117.037 24.0941 117.048 22.665Z" fill="#F9A01A"/>
<path d="M49.183 15.1258C49.8979 15.1197 50.612 15.1167 51.3269 15.1136C51.5327 15.1136 51.7377 15.1106 51.9458 15.1106C52.2377 15.1106 52.2377 15.1106 52.5357 15.1075C52.714 15.1075 52.8954 15.1075 53.0806 15.1045C53.4945 15.1258 53.4945 15.1258 53.6523 15.2836C53.6698 15.5336 53.6751 15.7836 53.6751 16.0336C53.6789 16.1974 53.6789 16.3582 53.6789 16.5252C53.6789 16.7066 53.682 16.8849 53.682 17.0701C53.6878 17.7766 53.6909 18.4831 53.6911 19.1897L53.6995 20.8123C53.7117 22.6552 53.7201 24.4981 53.73 26.341C53.7353 27.3593 53.7376 28.3745 53.7475 29.3927C53.7498 29.9316 53.7529 30.4704 53.7529 31.0062C53.7559 31.6076 53.759 32.2089 53.7651 32.8103V33.3491C53.7712 34.5396 53.7712 34.5396 54.1309 35.6623C54.5333 35.8765 54.5333 35.8765 55.0211 35.9542C55.1789 35.987 55.3366 36.0228 55.5013 36.0586C56.159 36.1623 56.8229 36.2309 57.4867 36.3056V40.4761C55.188 40.5539 52.839 40.5447 50.9458 39.0387C49.6029 37.6988 49.1799 35.8704 49.1243 34.016C49.1243 33.6616 49.1243 33.3103 49.1266 32.9589V32.3698C49.1266 31.8423 49.1296 31.318 49.1326 30.7921C49.1357 30.241 49.1357 29.6869 49.1387 29.1367C49.1387 28.094 49.1418 27.0521 49.1471 26.0103C49.1532 24.8221 49.1563 23.6346 49.1593 22.4464C49.1624 20.0052 49.1715 17.564 49.183 15.1258Z" fill="#F59D1A"/>
<path d="M135.251 15.125H139.562C139.723 15.2828 139.723 15.2828 139.744 15.5777C139.741 15.7706 139.741 15.7706 139.741 15.9672C139.741 16.1135 139.744 16.2621 139.744 16.4138C139.741 16.5777 139.741 16.7385 139.741 16.9085V17.4267C139.741 17.9915 139.741 18.5578 139.738 19.1264V20.3024C139.738 21.3351 139.735 22.3678 139.735 23.4013C139.732 24.4554 139.732 25.5095 139.732 26.5635L139.723 32.7736C139.127 32.9436 139.127 32.9436 138.743 32.8628C137.582 32.6342 136.421 32.8034 135.251 32.9344V15.125Z" fill="#F29B19"/>
<path d="M41.0376 24.9102C41.3349 24.9483 41.6298 24.9871 41.9248 25.0291C42.8561 25.1304 43.8066 25.1274 44.7318 24.981L45.1906 24.9102C45.4917 25.2135 45.369 25.654 45.372 26.0564C45.372 26.199 45.369 26.3384 45.369 26.4848C45.369 26.6334 45.372 26.782 45.372 26.9345V29.4382C45.372 30.1554 45.372 30.8703 45.369 31.5875C45.369 32.5074 45.369 33.4273 45.372 34.3472V37.4797C45.372 37.9523 45.372 38.4263 45.369 38.8996C45.369 39.0399 45.372 39.1824 45.372 39.3287C45.369 40.2967 45.369 40.2967 45.1906 40.4743C44.8812 40.4895 44.5741 40.4926 44.2677 40.4895H43.6991C43.5025 40.4865 43.3058 40.4865 43.1038 40.4834H42.5056L41.0376 40.4743C40.8882 38.6466 40.8555 36.8311 40.8585 34.9966C40.8555 34.7078 40.8555 34.4189 40.8555 34.1331C40.8555 33.5348 40.8555 32.9395 40.8585 32.3412C40.8585 31.576 40.8585 30.8108 40.8555 30.0426V28.2713C40.8585 27.9885 40.8555 27.7058 40.8555 27.4222C40.8555 27.0297 40.8555 26.6372 40.8585 26.2439C40.8585 26.1273 40.8555 26.0084 40.8555 25.8895C40.8616 25.0885 40.8616 25.0885 41.0376 24.9102Z" fill="#F89F1A"/>
<path d="M44.61 17.6203C45.2381 17.9923 45.6344 18.4244 45.828 19.1355C45.9347 20.0288 46.0482 21.0142 45.5391 21.8031L45.1908 22.1841C45.1222 22.2771 45.0506 22.3694 44.9797 22.4646C44.1901 23.0538 43.309 23.0393 42.3746 22.9112C41.6925 22.7588 41.2542 22.4791 40.8381 21.9136C40.3526 21.0737 40.2459 20.2521 40.4006 19.2963C40.6765 18.5166 41.1567 17.9869 41.835 17.5311C42.7519 17.2248 43.7198 17.2278 44.61 17.6203Z" fill="#F19B19"/>
<path d="M139.133 35.2814C139.785 35.8606 140.145 36.3522 140.255 37.2158C140.286 38.0915 140.244 38.7782 139.722 39.5144C139.059 40.1844 138.481 40.4969 137.537 40.5266C136.7 40.5144 136.075 40.3513 135.412 39.833C134.733 39.0175 134.673 38.2965 134.712 37.2455C134.831 36.3461 135.171 35.8583 135.879 35.2806C136.95 34.709 138.049 34.7448 139.133 35.2806L139.133 35.2814Z" fill="#F39C19"/>
<path d="M89.3219 17.6203C89.9468 17.99 90.3401 18.4305 90.5398 19.1355C90.6617 20.172 90.6922 21.1514 90.0604 22.0241C89.4088 22.6788 88.7175 22.9768 87.7892 22.992C86.9523 22.9349 86.3929 22.7535 85.7496 22.1841C85.0408 21.2642 84.9722 20.4396 85.1124 19.2963C85.3922 18.448 85.8479 18.0433 86.5476 17.5311C87.4645 17.2248 88.4317 17.2278 89.3219 17.6203Z" fill="#F29B19"/>
</svg>
