<svg width="32" height="32" viewBox="0 0 32 32" fill="none" xmlns="http://www.w3.org/2000/svg">
<g id="bookmark (1) 1">
<path id="Vector" d="M3.7976 31.4C4.52566 31.7112 5.3306 31.7957 6.1074 31.6425C6.88421 31.4893 7.59681 31.1056 8.15226 30.5413L15.9989 22.7373L23.8456 30.5413C24.2115 30.9125 24.6473 31.2075 25.1279 31.4091C25.6086 31.6108 26.1244 31.7151 26.6456 31.716C27.1813 31.7145 27.7115 31.6071 28.2056 31.4C28.9396 31.1029 29.567 30.5915 30.0059 29.9324C30.4447 29.2732 30.6746 28.4971 30.6656 27.7053V6.66667C30.6635 4.89921 29.9604 3.20474 28.7106 1.95496C27.4609 0.705176 25.7664 0.00211714 23.9989 0L7.99893 0C6.23147 0.00211714 4.53701 0.705176 3.28722 1.95496C2.03744 3.20474 1.33438 4.89921 1.33226 6.66667V27.7053C1.32366 28.4977 1.55437 29.2743 1.99421 29.9335C2.43406 30.5927 3.06259 31.1038 3.7976 31.4Z" fill="#FF7B1C"/>
<path id="Vector_2" d="M21.5429 8.82791H18.2082L17.0281 5.65891C16.8658 5.22445 16.4503 4.93555 15.9869 4.93555C15.5235 4.93555 15.1068 5.22445 14.9457 5.65891L13.7656 8.82791H10.4309C9.96536 8.82791 9.54866 9.11903 9.38865 9.55571C9.22753 9.9935 9.35754 10.4835 9.71312 10.7858L12.3544 12.9347L11.3088 16.2859C11.1677 16.736 11.3255 17.226 11.7021 17.5093C11.8988 17.6571 12.1333 17.7315 12.3689 17.7315C12.5844 17.7315 12.8 17.6693 12.9867 17.5438L15.9958 15.5304L19.056 17.5227C19.4505 17.7793 19.9661 17.7593 20.3405 17.4715C20.715 17.1838 20.8661 16.6904 20.7172 16.2426L19.6294 12.9314L22.2585 10.7902C22.6152 10.4891 22.7463 9.99795 22.5863 9.55904C22.4262 9.12014 22.0084 8.82791 21.5429 8.82791Z" fill="white"/>
</g>
</svg>
