<svg width="24" height="24" viewBox="0 0 24 24" fill="none" xmlns="http://www.w3.org/2000/svg">
<g id="check_circle">
<mask id="mask0_6232_29574" style="mask-type:alpha" maskUnits="userSpaceOnUse" x="0" y="0" width="24" height="24">
<rect id="Bounding box" width="24" height="24" fill="#D9D9D9"/>
</mask>
<g mask="url(#mask0_6232_29574)">
<path id="check_circle_2" d="M10.6 13.7996L8.45 11.6497C8.26667 11.4664 8.03333 11.3747 7.75 11.3747C7.46667 11.3747 7.23333 11.4664 7.05 11.6497C6.86667 11.833 6.775 12.0664 6.775 12.3497C6.775 12.633 6.86667 12.8663 7.05 13.0497L9.9 15.8996C10.1 16.0996 10.3333 16.1996 10.6 16.1996C10.8667 16.1996 11.1 16.0996 11.3 15.8996L16.95 10.2497C17.1333 10.0664 17.225 9.83309 17.225 9.54976C17.225 9.26644 17.1333 9.03311 16.95 8.84979C16.7667 8.66646 16.5333 8.57479 16.25 8.57479C15.9667 8.57479 15.7333 8.66646 15.55 8.84979L10.6 13.7996ZM12 21.9994C10.6167 21.9994 9.31667 21.7369 8.1 21.2119C6.88333 20.6869 5.825 19.9744 4.925 19.0745C4.025 18.1745 3.3125 17.1162 2.7875 15.8996C2.2625 14.6829 2 13.383 2 11.9997C2 10.6164 2.2625 9.31644 2.7875 8.09981C3.3125 6.88318 4.025 5.82488 4.925 4.92491C5.825 4.02494 6.88333 3.31246 8.1 2.78748C9.31667 2.26249 10.6167 2 12 2C13.3833 2 14.6833 2.26249 15.9 2.78748C17.1167 3.31246 18.175 4.02494 19.075 4.92491C19.975 5.82488 20.6875 6.88318 21.2125 8.09981C21.7375 9.31644 22 10.6164 22 11.9997C22 13.383 21.7375 14.6829 21.2125 15.8996C20.6875 17.1162 19.975 18.1745 19.075 19.0745C18.175 19.9744 17.1167 20.6869 15.9 21.2119C14.6833 21.7369 13.3833 21.9994 12 21.9994Z" fill="#20D231"/>
</g>
</g>
</svg>
