<svg width="20" height="20" viewBox="0 0 20 20" fill="none" xmlns="http://www.w3.org/2000/svg">
<path d="M10.0051 20C8.6327 20 7.3426 19.7358 6.13484 19.2074C4.93395 18.6859 3.87373 17.9653 2.95419 17.0458C2.03465 16.1263 1.31069 15.066 0.782295 13.8652C0.260765 12.6574 0 11.3673 0 9.99485C0 8.62927 0.260765 7.3426 0.782295 6.13484C1.30383 4.92709 2.02436 3.86344 2.9439 2.9439C3.8703 2.02436 4.93395 1.30383 6.13484 0.782295C7.3426 0.260765 8.62927 0 9.99485 0C11.3604 0 12.6471 0.260765 13.8549 0.782295C15.0626 1.30383 16.1263 2.02436 17.0458 2.9439C17.9653 3.86344 18.6859 4.92709 19.2074 6.13484C19.7358 7.3426 20 8.62927 20 9.99485C20 11.3673 19.7392 12.6574 19.2177 13.8652C18.6962 15.066 17.9756 16.1263 17.0561 17.0458C16.1366 17.9653 15.0729 18.6859 13.8652 19.2074C12.6574 19.7358 11.3707 20 10.0051 20ZM10.0154 13.1446C10.5987 13.1446 11.1306 13.0039 11.6109 12.7226C12.0913 12.4344 12.4756 12.0501 12.7638 11.5697C13.052 11.0894 13.1961 10.5576 13.1961 9.97427C13.1961 9.39784 13.052 8.86945 12.7638 8.38909C12.4756 7.90873 12.0913 7.52788 11.6109 7.24653C11.1306 6.96517 10.5987 6.8245 10.0154 6.8245C9.43901 6.8245 8.91062 6.96517 8.43026 7.24653C7.94991 7.52788 7.56562 7.90873 7.27741 8.38909C6.98919 8.86945 6.84509 9.39784 6.84509 9.97427C6.84509 10.5576 6.98919 11.0894 7.27741 11.5697C7.56562 12.0501 7.94991 12.4344 8.43026 12.7226C8.91062 13.0039 9.43901 13.1446 10.0154 13.1446Z" fill="#20D231"/>
</svg>
