<svg width="40" height="40" viewBox="0 0 40 40" fill="none" xmlns="http://www.w3.org/2000/svg">
<g id="Group 1337">
<circle id="Ellipse 54" cx="20" cy="20" r="20" fill="#D3D4D5"/>
<path id="Vector" d="M20 0C8.98 0 0 8.98 0 20C0 31.02 8.98 40 20 40C31.02 40 40 31.02 40 20C40 8.98 31.02 0 20 0ZM19.6 9.53999C23.16 9.53999 26.04 12.42 26.04 15.98C26.04 19.52 23.16 22.42 19.6 22.42C16.06 22.42 13.18 19.52 13.18 15.98C13.18 12.42 16.06 9.53999 19.6 9.53999ZM31.86 32.16C30.96 33.06 29.94 33.84 28.86 34.5C26.28 36.1 23.24 37 20 37C16.76 37 13.72 36.1 11.14 34.5C10.06 33.84 9.04001 33.06 8.14001 32.16V31.78C8.14001 27.68 11.48 24.34 15.56 24.34H24.44C28.52 24.34 31.86 27.68 31.86 31.78V32.16Z" fill="#FAFBFF"/>
</g>
</svg>
