<svg width="90" height="71" viewBox="0 0 90 71" fill="none" xmlns="http://www.w3.org/2000/svg">
<path id="&#244;&#128;&#143;&#133;" d="M11.9847 70.2672C4.00763 70.2672 0 66.3359 0 58.4733V11.8321C0 3.96947 4.00763 0 11.9847 0H78.0153C86.0305 0 90 3.96947 90 11.8321V58.4733C90 66.3359 86.0305 70.2672 78.0153 70.2672H11.9847ZM63.3969 35.1145L83.855 54.313V12.1756C83.855 8.20611 81.7176 6.14504 77.9389 6.14504H12.0611C8.24427 6.14504 6.14504 8.20611 6.14504 12.1756V54.313L17.5191 44.0458C19.084 42.5954 20.7252 41.9084 22.4427 41.9084C24.2366 41.9084 25.9924 42.6336 27.5954 44.084L34.6565 50.458L51.9084 35.0382C53.6641 33.4733 55.5343 32.7481 57.6336 32.7481C59.6947 32.7481 61.7176 33.5496 63.3969 35.1145ZM28.4351 35.4962C23.4733 35.4962 19.4275 31.4504 19.4275 26.4885C19.4275 21.5649 23.4733 17.4809 28.4351 17.4809C33.3588 17.4809 37.4046 21.5649 37.4046 26.4885C37.4046 31.4504 33.3588 35.4962 28.4351 35.4962Z" fill="#FF7B1C" fill-opacity="0.5"/>
</svg>
