<svg width="127" height="67" viewBox="0 0 127 67" fill="none" xmlns="http://www.w3.org/2000/svg">
<g id="Group 1348">
<g id="Group 1314">
<path id="Background" fill-rule="evenodd" clip-rule="evenodd" d="M121.677 12.4734C124.617 12.4734 127 14.8376 127 17.7539C127 20.6703 124.617 23.0344 121.677 23.0344H91.2575C94.1975 23.0344 96.5808 25.3986 96.5808 28.315C96.5808 31.2313 94.1975 33.5955 91.2575 33.5955H107.988C110.928 33.5955 113.311 35.9597 113.311 38.876C113.311 41.7924 110.928 44.1565 107.988 44.1565H100.251C96.544 44.1565 93.5389 46.5207 93.5389 49.4371C93.5389 51.3813 95.0599 53.1415 98.1018 54.7176C101.042 54.7176 103.425 57.0818 103.425 59.9981C103.425 62.9145 101.042 65.2787 98.1018 65.2787H34.982C32.042 65.2787 29.6587 62.9145 29.6587 59.9981C29.6587 57.0818 32.042 54.7176 34.982 54.7176H5.32335C2.38335 54.7176 0 52.3534 0 49.4371C0 46.5207 2.38335 44.1565 5.32335 44.1565H35.7425C38.6825 44.1565 41.0659 41.7924 41.0659 38.876C41.0659 35.9597 38.6825 33.5955 35.7425 33.5955H16.7305C13.7905 33.5955 11.4072 31.2313 11.4072 28.315C11.4072 25.3986 13.7905 23.0344 16.7305 23.0344H47.1497C44.2097 23.0344 41.8263 20.6703 41.8263 17.7539C41.8263 14.8376 44.2097 12.4734 47.1497 12.4734H121.677ZM121.677 33.5955C124.617 33.5955 127 35.9597 127 38.876C127 41.7924 124.617 44.1565 121.677 44.1565C118.737 44.1565 116.353 41.7924 116.353 38.876C116.353 35.9597 118.737 33.5955 121.677 33.5955Z" fill="#E7E9F1"/>
<path id="Vector 55" d="M112.18 12V22.3605" stroke="#C5C8D2" stroke-width="2" stroke-linecap="round"/>
<path id="Vector 56" d="M117.361 17.1802L107.001 17.1802" stroke="#C5C8D2" stroke-width="2" stroke-linecap="round"/>
</g>
<path id="Rectangle 4210" d="M31 7C31 3.68629 33.6863 1 37 1H80C83.3137 1 86 3.68629 86 7V21C86 24.3137 83.3137 27 80 27H33C31.8954 27 31 26.1046 31 25V7Z" stroke="#C5C8D2" stroke-width="2"/>
<path id="Rectangle 4211" d="M113 40C113 36.6863 110.314 34 107 34H64C60.6863 34 58 36.6863 58 40V52C58 55.3137 60.6863 58 64 58H111C112.105 58 113 57.1046 113 56V40Z" stroke="#C5C8D2" stroke-width="2"/>
<g id="Group 1346">
<path id="Vector 50" d="M23.0996 38.0212C25.3834 42.366 31.2543 51.7907 36.468 54.7318" stroke="#C5C8D2" stroke-width="2" stroke-linecap="round"/>
<path id="Vector 49" d="M32.7911 39.6921C35.8658 43.8363 33.4038 49.05 32.1227 51.0553C17.2837 52.1247 17.1389 37.4083 18.5871 30C22.2635 34.5118 28.9477 34.5118 32.7911 39.6921Z" stroke="#C5C8D2" stroke-width="2" stroke-linejoin="round"/>
</g>
<path id="Vector 55_2" d="M45 59.7554C49 62 51.5 63 58 63" stroke="#C5C8D2" stroke-width="2" stroke-linecap="round"/>
</g>
</svg>
