<svg width="24" height="24" viewBox="0 0 24 24" fill="none" xmlns="http://www.w3.org/2000/svg">
<path d="M12 2C10.0222 2 8.08879 2.58649 6.4443 3.6853C4.79981 4.78412 3.51809 6.3459 2.76121 8.17316C2.00433 10.0004 1.8063 12.0111 2.19215 13.9509C2.578 15.8907 3.53041 17.6725 4.92894 19.0711C6.32746 20.4696 8.10929 21.422 10.0491 21.8078C11.9889 22.1937 13.9996 21.9957 15.8268 21.2388C17.6541 20.4819 19.2159 19.2002 20.3147 17.5557C21.4135 15.9112 22 13.9778 22 12C21.9971 9.34871 20.9426 6.80684 19.0679 4.9321C17.1932 3.05736 14.6513 2.00287 12 2ZM12 20.3333C10.3518 20.3333 8.74066 19.8446 7.37025 18.9289C5.99984 18.0132 4.93174 16.7117 4.30101 15.189C3.67028 13.6663 3.50525 11.9908 3.82679 10.3742C4.14834 8.75774 4.94201 7.27288 6.10745 6.10744C7.27288 4.94201 8.75774 4.14833 10.3743 3.82679C11.9908 3.50525 13.6663 3.67027 15.189 4.301C16.7117 4.93173 18.0132 5.99984 18.9289 7.37025C19.8446 8.74066 20.3333 10.3518 20.3333 12C20.3309 14.2094 19.4522 16.3276 17.8899 17.8899C16.3276 19.4522 14.2094 20.3309 12 20.3333Z" fill="#FF7B1C"/>
<path d="M12.0007 10.3335H11.1673C10.9463 10.3335 10.7343 10.4213 10.5781 10.5776C10.4218 10.7339 10.334 10.9458 10.334 11.1668C10.334 11.3878 10.4218 11.5998 10.5781 11.7561C10.7343 11.9124 10.9463 12.0002 11.1673 12.0002H12.0007V17.0002C12.0007 17.2212 12.0884 17.4331 12.2447 17.5894C12.401 17.7457 12.613 17.8335 12.834 17.8335C13.055 17.8335 13.267 17.7457 13.4232 17.5894C13.5795 17.4331 13.6673 17.2212 13.6673 17.0002V12.0002C13.6673 11.5581 13.4917 11.1342 13.1792 10.8217C12.8666 10.5091 12.4427 10.3335 12.0007 10.3335Z" fill="#FF7B1C"/>
<path d="M12 8.6665C12.6904 8.6665 13.25 8.10686 13.25 7.4165C13.25 6.72615 12.6904 6.1665 12 6.1665C11.3096 6.1665 10.75 6.72615 10.75 7.4165C10.75 8.10686 11.3096 8.6665 12 8.6665Z" fill="#FF7B1C"/>
</svg>
