<svg width="23" height="22" viewBox="0 0 23 22" fill="none" xmlns="http://www.w3.org/2000/svg">
<path d="M4.40893 21.8352C4.79881 22.1199 5.26993 22.0304 5.84664 21.6074L11.5 17.4584L17.1534 21.6074C17.7301 22.0304 18.2093 22.1199 18.5911 21.8352C18.9647 21.5505 19.0541 21.0786 18.8266 20.3953L16.6091 13.7406L22.3031 9.64036C22.8798 9.22545 23.1073 8.79428 22.9529 8.3387C22.8067 7.8994 22.3844 7.66347 21.6533 7.67161L14.6678 7.71228L12.5316 1.03319C12.3123 0.341683 11.9711 0 11.5 0C11.0289 0 10.6877 0.341683 10.4684 1.03319L8.33217 7.71228L1.34669 7.67161C0.623772 7.66347 0.193271 7.8994 0.0470635 8.3387C-0.107267 8.79428 0.120167 9.22545 0.696875 9.64036L6.39085 13.7406L4.18149 20.3953C3.94594 21.0786 4.03528 21.5505 4.40893 21.8352Z" fill="#DADADA"/>
</svg>
