<svg width="22" height="22" viewBox="0 0 22 22" fill="none" xmlns="http://www.w3.org/2000/svg">
<path d="M4.21723 21.8352C4.59017 22.1199 5.0408 22.0304 5.59243 21.6074L11 17.4584L16.4076 21.6074C16.9592 22.0304 17.4176 22.1199 17.7828 21.8352C18.1402 21.5505 18.2256 21.0786 18.0081 20.3953L15.887 13.7406L21.3334 9.64036C21.8851 9.22545 22.1026 8.79428 21.955 8.3387C21.8151 7.8994 21.4111 7.66347 20.7119 7.67161L14.0301 7.71228L11.9867 1.03319C11.7769 0.341683 11.4506 0 11 0C10.5494 0 10.2231 0.341683 10.0133 1.03319L7.9699 7.71228L1.28814 7.67161C0.596651 7.66347 0.184868 7.8994 0.0450172 8.3387C-0.102603 8.79428 0.114943 9.22545 0.666577 9.64036L6.11299 13.7406L3.99969 20.3953C3.77437 21.0786 3.85984 21.5505 4.21723 21.8352Z" fill="#FF7B1C"/>
</svg>
