<svg width="24" height="24" viewBox="0 0 24 24" fill="none" xmlns="http://www.w3.org/2000/svg">
<g id="Icon">
<path id="&#244;&#128;&#141;&#183;" d="M12.0051 22C10.6327 22 9.3426 21.7358 8.13484 21.2074C6.93395 20.6859 5.87373 19.9653 4.95419 19.0458C4.03465 18.1263 3.31069 17.0661 2.7823 15.8652C2.26077 14.6574 2 13.3673 2 11.9949C2 10.6293 2.26077 9.3426 2.7823 8.13484C3.30383 6.92709 4.02436 5.86344 4.9439 4.9439C5.8703 4.02436 6.93395 3.30383 8.13484 2.7823C9.3426 2.26077 10.6293 2 11.9949 2C13.3604 2 14.6471 2.26077 15.8549 2.7823C17.0626 3.30383 18.1263 4.02436 19.0458 4.9439C19.9653 5.86344 20.6859 6.92709 21.2074 8.13484C21.7358 9.3426 22 10.6293 22 11.9949C22 13.3673 21.7392 14.6574 21.2177 15.8652C20.6962 17.0661 19.9756 18.1263 19.0561 19.0458C18.1366 19.9653 17.0729 20.6859 15.8652 21.2074C14.6574 21.7358 13.3707 22 12.0051 22ZM12.0051 20.1678C13.1374 20.1678 14.1976 19.9551 15.1858 19.5296C16.174 19.111 17.042 18.5277 17.79 17.7797C18.538 17.0317 19.1213 16.1637 19.5399 15.1755C19.9585 14.1873 20.1678 13.1271 20.1678 11.9949C20.1678 10.8626 19.9585 9.80237 19.5399 8.81421C19.1213 7.82604 18.538 6.95797 17.79 6.20998C17.042 5.462 16.1705 4.87871 15.1755 4.46011C14.1873 4.04152 13.1271 3.83222 11.9949 3.83222C10.8626 3.83222 9.80237 4.04152 8.81421 4.46011C7.8329 4.87871 6.96826 5.462 6.22028 6.20998C5.47229 6.95797 4.889 7.82604 4.47041 8.81421C4.05181 9.80237 3.84251 10.8626 3.84251 11.9949C3.84251 13.1271 4.05181 14.1873 4.47041 15.1755C4.889 16.1637 5.47229 17.0317 6.22028 17.7797C6.96826 18.5277 7.83634 19.111 8.8245 19.5296C9.81266 19.9551 10.8729 20.1678 12.0051 20.1678ZM12.0154 14.9902C11.4665 14.9902 10.9621 14.8564 10.5023 14.5888C10.0425 14.3212 9.67542 13.9609 9.40093 13.508C9.12644 13.0482 8.98919 12.537 8.98919 11.9743C8.98919 11.4253 9.12644 10.9243 9.40093 10.4714C9.67542 10.0117 10.0425 9.64797 10.5023 9.38034C10.9621 9.11271 11.4665 8.9789 12.0154 8.9789C12.5644 8.9789 13.0654 9.11271 13.5183 9.38034C13.978 9.64797 14.3452 10.0117 14.6197 10.4714C14.8942 10.9243 15.0314 11.4253 15.0314 11.9743C15.0314 12.537 14.8942 13.0482 14.6197 13.508C14.3452 13.9609 13.978 14.3212 13.5183 14.5888C13.0654 14.8564 12.5644 14.9902 12.0154 14.9902Z" />
</g>
</svg>
