<svg width="16" height="16" viewBox="0 0 16 16" fill="none" xmlns="http://www.w3.org/2000/svg">
<path d="M7.99987 11.6667C8.83321 11.6667 9.54154 11.375 10.1249 10.7917C10.7082 10.2083 10.9999 9.5 10.9999 8.66667C10.9999 7.83333 10.7082 7.125 10.1249 6.54167C9.54154 5.95833 8.83321 5.66667 7.99987 5.66667C7.16654 5.66667 6.45821 5.95833 5.87487 6.54167C5.29154 7.125 4.99987 7.83333 4.99987 8.66667C4.99987 9.5 5.29154 10.2083 5.87487 10.7917C6.45821 11.375 7.16654 11.6667 7.99987 11.6667ZM2.66654 14C2.29987 14 1.98598 13.8694 1.72487 13.6083C1.46376 13.3472 1.33321 13.0333 1.33321 12.6667V4.66667C1.33321 4.3 1.46376 3.98611 1.72487 3.725C1.98598 3.46389 2.29987 3.33333 2.66654 3.33333H4.76654L5.59987 2.43333C5.7221 2.28889 5.86932 2.18056 6.04154 2.10833C6.21376 2.03611 6.39432 2 6.58321 2H9.41654C9.60543 2 9.78598 2.03611 9.95821 2.10833C10.1304 2.18056 10.2776 2.28889 10.3999 2.43333L11.2332 3.33333H13.3332C13.6999 3.33333 14.0138 3.46389 14.2749 3.725C14.536 3.98611 14.6665 4.3 14.6665 4.66667V12.6667C14.6665 13.0333 14.536 13.3472 14.2749 13.6083C14.0138 13.8694 13.6999 14 13.3332 14H2.66654ZM13.3332 12.6667V4.66667H2.66654V12.6667H13.3332Z" fill="white"/>
</svg>
