<svg width="13" height="12" viewBox="0 0 13 12" fill="none" xmlns="http://www.w3.org/2000/svg">
<path d="M6.50002 11.8334C6.26391 11.8334 6.06599 11.7536 5.90627 11.5938C5.74655 11.4341 5.66669 11.2362 5.66669 11.0001V6.83342H1.50002C1.26391 6.83342 1.06599 6.75355 0.90627 6.59383C0.746548 6.43411 0.666687 6.23619 0.666687 6.00008C0.666687 5.76397 0.746548 5.56605 0.90627 5.40633C1.06599 5.24661 1.26391 5.16675 1.50002 5.16675H5.66669V1.00008C5.66669 0.76397 5.74655 0.566054 5.90627 0.406331C6.06599 0.246609 6.26391 0.166748 6.50002 0.166748C6.73613 0.166748 6.93405 0.246609 7.09377 0.406331C7.25349 0.566054 7.33335 0.76397 7.33335 1.00008V5.16675H11.5C11.7361 5.16675 11.934 5.24661 12.0938 5.40633C12.2535 5.56605 12.3334 5.76397 12.3334 6.00008C12.3334 6.23619 12.2535 6.43411 12.0938 6.59383C11.934 6.75355 11.7361 6.83342 11.5 6.83342H7.33335V11.0001C7.33335 11.2362 7.25349 11.4341 7.09377 11.5938C6.93405 11.7536 6.73613 11.8334 6.50002 11.8334Z" fill="white"/>
</svg>
