<svg width="100" height="100" viewBox="0 0 100 100" fill="none" xmlns="http://www.w3.org/2000/svg">
<path d="M50 0C22.45 0 0 22.45 0 50C0 77.55 22.45 100 50 100C77.55 100 100 77.55 100 50C100 22.45 77.55 0 50 0ZM49 23.85C57.9 23.85 65.1 31.05 65.1 39.95C65.1 48.8 57.9 56.05 49 56.05C40.15 56.05 32.95 48.8 32.95 39.95C32.95 31.05 40.15 23.85 49 23.85ZM79.65 80.4C77.4 82.65 74.85 84.6 72.15 86.25C65.7 90.25 58.1 92.5 50 92.5C41.9 92.5 34.3 90.25 27.85 86.25C25.15 84.6 22.6 82.65 20.35 80.4V79.45C20.35 69.2 28.7 60.85 38.9 60.85H61.1C71.3 60.85 79.65 69.2 79.65 79.45V80.4Z" fill="#6C6E76"/>
<circle cx="50" cy="50" r="50" fill="black" fill-opacity="0.2"/>
</svg>
