<svg width="132" height="88" viewBox="0 0 132 88" fill="none" xmlns="http://www.w3.org/2000/svg">
<rect x="17" y="23.0001" width="95" height="10" rx="5" fill="#E7E9F1"/>
<path fill-rule="evenodd" clip-rule="evenodd" d="M103.99 33.0001L34 33.0001C31.2386 33.0001 29 35.2386 29 38.0001C29 40.7615 31.2386 43.0001 34 43.0001L104 43.0001C101.239 43.0001 99 40.7615 99 38.0001C99 35.2421 101.233 33.0057 103.99 33.0001Z" fill="#E7E9F1"/>
<rect y="43.0001" width="132" height="10" rx="5" fill="#E7E9F1"/>
<rect x="29" y="73.0001" width="96" height="10" rx="5" fill="#E7E9F1"/>
<path fill-rule="evenodd" clip-rule="evenodd" d="M31 63.0001H114C116.761 63.0001 119 60.7615 119 58.0001C119 55.2386 116.761 53.0001 114 53.0001H31C33.7614 53.0001 36 55.2386 36 58.0001C36 60.7615 33.7614 63.0001 31 63.0001Z" fill="#E7E9F1"/>
<path fill-rule="evenodd" clip-rule="evenodd" d="M25 63.0001C22.2386 63.0001 20 65.2386 20 68.0001C20 70.7615 22.2386 73.0001 25 73.0001H109C106.239 73.0001 104 70.7615 104 68.0001C104 65.2386 106.239 63.0001 109 63.0001H25Z" fill="#E7E9F1"/>
<path d="M70.053 22.8796C82.1876 22.8796 92.0254 32.7174 92.0254 44.852V63.6143C92.0254 67.5004 93.5198 70.5029 95.3659 72.7326C97.0797 74.8002 95.6269 77.9253 92.9426 77.9253H70.053H47.1634C44.4772 77.9253 43.0263 74.8002 44.7401 72.7326C46.5882 70.5029 48.0806 67.5004 48.0806 63.6143V44.852C48.0806 32.7174 57.9184 22.8796 70.051 22.8796H70.053Z" stroke="#C5C8D2" stroke-width="2" stroke-linejoin="round"/>
<path d="M70 23C72.2091 23 74 21.2092 74 19C74 16.7909 72.2091 15 70 15C67.7909 15 66 16.7909 66 19C66 21.2092 67.7909 23 70 23Z" stroke="#C5C8D2" stroke-width="2" stroke-linejoin="round"/>
<path d="M62 79L62 80.2926C62 83.9965 65.5823 87 70 87C74.4177 87 78 83.9965 78 80.2926V79" stroke="#C5C8D2" stroke-width="2" stroke-linejoin="round"/>
<path d="M70.1577 61.0001C71.8146 61.0001 73.1577 59.657 73.1577 58.0001C73.1577 56.3433 71.8146 55.0001 70.1577 55.0001C68.5009 55.0001 67.1577 56.3433 67.1577 58.0001C67.1577 59.657 68.5009 61.0001 70.1577 61.0001Z" stroke="#C5C8D2" stroke-width="2"/>
<path d="M57 43.5613C57 43.5613 60.8505 47.989 65.5134 43.5613" stroke="#C5C8D2" stroke-width="2" stroke-linecap="round" stroke-linejoin="round"/>
<path d="M75.1934 43.5613C75.1934 43.5613 79.0439 47.989 83.7068 43.5613" stroke="#C5C8D2" stroke-width="2" stroke-linecap="round" stroke-linejoin="round"/>
<path d="M119.248 43.7493L111.749 51.2476" stroke="#C5C8D2" stroke-width="2" stroke-linecap="round"/>
<path d="M119.248 51.2476L111.749 43.7492" stroke="#C5C8D2" stroke-width="2" stroke-linecap="round"/>
<path d="M44.3022 1.00006V11.6044" stroke="#C5C8D2" stroke-width="2" stroke-linecap="round"/>
<path d="M49.6045 6.30225L39.0002 6.30225" stroke="#C5C8D2" stroke-width="2" stroke-linecap="round"/>
<path d="M11.3022 67.0001V77.6044" stroke="#C5C8D2" stroke-width="2" stroke-linecap="round"/>
<path d="M16.6045 72.3022L6.00019 72.3022" stroke="#C5C8D2" stroke-width="2" stroke-linecap="round"/>
<circle cx="98" cy="18.0001" r="3" stroke="#C5C8D2" stroke-width="2"/>
<circle cx="28" cy="48.0001" r="3" stroke="#C5C8D2" stroke-width="2"/>
</svg>
