<svg width="15" height="14" viewBox="0 0 15 14" fill="none" xmlns="http://www.w3.org/2000/svg">
<path fill-rule="evenodd" clip-rule="evenodd" d="M6.91663 4.66666C6.91663 4.34466 7.17796 4.08332 7.49996 4.08332C7.82196 4.08332 8.08329 4.34466 8.08329 4.66666C8.08329 4.98866 7.82196 5.24999 7.49996 5.24999C7.17796 5.24999 6.91663 4.98866 6.91663 4.66666ZM6.91663 6.41666C6.91663 6.09466 7.17796 5.83332 7.49996 5.83332C7.82196 5.83332 8.08329 6.09466 8.08329 6.41666V9.33332C8.08329 9.65532 7.82196 9.91666 7.49996 9.91666C7.17796 9.91666 6.91663 9.65532 6.91663 9.33332V6.41666ZM7.49996 11.6667C4.92688 11.6667 2.83329 9.57307 2.83329 6.99999C2.83329 4.42691 4.92688 2.33332 7.49996 2.33332C10.073 2.33332 12.1666 4.42691 12.1666 6.99999C12.1666 9.57307 10.073 11.6667 7.49996 11.6667ZM7.49996 1.16666C4.27821 1.16666 1.66663 3.77824 1.66663 6.99999C1.66663 10.2217 4.27821 12.8333 7.49996 12.8333C10.7211 12.8333 13.3333 10.2217 13.3333 6.99999C13.3333 3.77824 10.7211 1.16666 7.49996 1.16666Z" fill="#FF4949"/>
<mask id="mask0_4346_12783" style="mask-type:luminance" maskUnits="userSpaceOnUse" x="1" y="1" width="13" height="12">
<path fill-rule="evenodd" clip-rule="evenodd" d="M6.91663 4.66666C6.91663 4.34466 7.17796 4.08332 7.49996 4.08332C7.82196 4.08332 8.08329 4.34466 8.08329 4.66666C8.08329 4.98866 7.82196 5.24999 7.49996 5.24999C7.17796 5.24999 6.91663 4.98866 6.91663 4.66666ZM6.91663 6.41666C6.91663 6.09466 7.17796 5.83332 7.49996 5.83332C7.82196 5.83332 8.08329 6.09466 8.08329 6.41666V9.33332C8.08329 9.65532 7.82196 9.91666 7.49996 9.91666C7.17796 9.91666 6.91663 9.65532 6.91663 9.33332V6.41666ZM7.49996 11.6667C4.92688 11.6667 2.83329 9.57307 2.83329 6.99999C2.83329 4.42691 4.92688 2.33332 7.49996 2.33332C10.073 2.33332 12.1666 4.42691 12.1666 6.99999C12.1666 9.57307 10.073 11.6667 7.49996 11.6667ZM7.49996 1.16666C4.27821 1.16666 1.66663 3.77824 1.66663 6.99999C1.66663 10.2217 4.27821 12.8333 7.49996 12.8333C10.7211 12.8333 13.3333 10.2217 13.3333 6.99999C13.3333 3.77824 10.7211 1.16666 7.49996 1.16666Z" fill="white"/>
</mask>
<g mask="url(#mask0_4346_12783)">
</g>
</svg>
