<svg width="234" height="76" viewBox="0 0 234 76" fill="none" xmlns="http://www.w3.org/2000/svg">
<mask id="mask0_4334_21473" style="mask-type:alpha" maskUnits="userSpaceOnUse" x="97" y="0" width="40" height="40">
<rect x="97" width="40" height="40" fill="#D9D9D9"/>
</mask>
<g mask="url(#mask0_4334_21473)">
<path d="M106.444 20.0832C106.444 20.6017 106.477 21.1087 106.542 21.604C106.607 22.0994 106.708 22.574 106.847 23.0277C106.949 23.4073 106.931 23.78 106.792 24.1457C106.653 24.5115 106.412 24.773 106.069 24.9304C105.718 25.0971 105.364 25.104 105.007 24.9513C104.651 24.7985 104.412 24.5415 104.292 24.1804C104.07 23.5045 103.91 22.8286 103.813 22.1527C103.715 21.4767 103.667 20.7869 103.667 20.0832C103.667 16.4165 104.972 13.273 107.583 10.6527C110.195 8.03228 113.333 6.72209 117 6.72209H118.292L116.097 4.52763C115.847 4.27763 115.722 3.97207 115.722 3.61096C115.722 3.24988 115.847 2.94434 116.097 2.69434C116.347 2.44434 116.657 2.31934 117.028 2.31934C117.398 2.31934 117.708 2.44434 117.958 2.69434L122.431 7.13875C122.708 7.41653 122.847 7.74061 122.847 8.111C122.847 8.48136 122.708 8.80543 122.431 9.08321L117.986 13.5276C117.736 13.7776 117.421 13.9026 117.042 13.9026C116.662 13.9026 116.347 13.7776 116.097 13.5276C115.847 13.2777 115.722 12.9628 115.722 12.5832C115.722 12.2036 115.847 11.8888 116.097 11.6388L118.236 9.49988H117C114.093 9.49988 111.607 10.5346 109.542 12.604C107.477 14.6735 106.444 17.1665 106.444 20.0832ZM127.556 19.9999C127.556 19.4813 127.523 18.9744 127.458 18.479C127.394 17.9837 127.292 17.4999 127.153 17.0276C127.033 16.648 127.042 16.2753 127.181 15.9096C127.32 15.5439 127.56 15.2823 127.903 15.1249C128.255 14.9582 128.604 14.9513 128.951 15.104C129.299 15.2568 129.532 15.5138 129.653 15.8749C129.894 16.5508 130.067 17.2314 130.174 17.9165C130.28 18.6017 130.333 19.2962 130.333 19.9999C130.333 23.6665 129.028 26.8101 126.417 29.4304C123.806 32.0508 120.667 33.361 117 33.361H115.653L117.847 35.5555C118.097 35.8055 118.222 36.111 118.222 36.4721C118.222 36.8332 118.097 37.1388 117.847 37.3888C117.597 37.6387 117.287 37.7636 116.917 37.7636C116.546 37.7636 116.236 37.6387 115.986 37.3888L111.514 32.9443C111.236 32.6666 111.097 32.3425 111.097 31.9721C111.097 31.6017 111.236 31.2777 111.514 30.9999L115.986 26.5277C116.236 26.2777 116.546 26.1527 116.917 26.1527C117.287 26.1527 117.597 26.2777 117.847 26.5277C118.097 26.7777 118.222 27.0879 118.222 27.4582C118.222 27.8286 118.097 28.1388 117.847 28.3888L115.653 30.5832H117C119.907 30.5832 122.394 29.5485 124.458 27.479C126.523 25.4096 127.556 22.9165 127.556 19.9999Z" fill="white"/>
</g>
<path opacity="0.9" d="M97.3945 68.3408C97.3945 68.9333 97.2464 69.4391 96.9502 69.8584C96.6585 70.2731 96.2484 70.5898 95.7197 70.8086C95.1911 71.0273 94.569 71.1367 93.8535 71.1367C93.4753 71.1367 93.1175 71.1185 92.7803 71.082C92.443 71.0456 92.1331 70.9932 91.8506 70.9248C91.568 70.8564 91.3197 70.7721 91.1055 70.6719V69.5576C91.4473 69.6989 91.8643 69.8311 92.3564 69.9541C92.8486 70.0726 93.3636 70.1318 93.9014 70.1318C94.4027 70.1318 94.8265 70.0658 95.1729 69.9336C95.5192 69.7969 95.7812 69.6032 95.959 69.3525C96.1413 69.0973 96.2324 68.792 96.2324 68.4365C96.2324 68.0947 96.1572 67.8099 96.0068 67.582C95.8564 67.3496 95.6058 67.14 95.2549 66.9531C94.9085 66.7617 94.4346 66.5589 93.833 66.3447C93.4092 66.1943 93.0355 66.0303 92.7119 65.8525C92.3883 65.6702 92.1172 65.4652 91.8984 65.2373C91.6797 65.0094 91.5133 64.7451 91.3994 64.4443C91.29 64.1436 91.2354 63.7995 91.2354 63.4121C91.2354 62.8789 91.3698 62.4232 91.6387 62.0449C91.9121 61.6621 92.2881 61.3704 92.7666 61.1699C93.2497 60.9648 93.8034 60.8623 94.4277 60.8623C94.9609 60.8623 95.4531 60.9124 95.9043 61.0127C96.36 61.113 96.777 61.2474 97.1553 61.416L96.793 62.4141C96.4329 62.2637 96.0501 62.1383 95.6445 62.0381C95.2435 61.9378 94.8288 61.8877 94.4004 61.8877C93.972 61.8877 93.6097 61.9515 93.3135 62.0791C93.0218 62.2021 92.7985 62.3776 92.6436 62.6055C92.4886 62.8333 92.4111 63.1045 92.4111 63.4189C92.4111 63.7699 92.484 64.0615 92.6299 64.2939C92.7803 64.5264 93.0173 64.7337 93.3408 64.916C93.6689 65.0938 94.1019 65.2806 94.6396 65.4766C95.2275 65.6908 95.7266 65.9186 96.1367 66.1602C96.5469 66.3971 96.859 66.6888 97.0732 67.0352C97.2874 67.377 97.3945 67.8122 97.3945 68.3408ZM102.07 63.3848C102.964 63.3848 103.627 63.5853 104.06 63.9863C104.493 64.3874 104.709 65.0277 104.709 65.9072V71H103.882L103.663 69.8926H103.608C103.399 70.166 103.18 70.3962 102.952 70.583C102.724 70.7653 102.46 70.9043 102.159 71C101.863 71.0911 101.498 71.1367 101.065 71.1367C100.61 71.1367 100.204 71.057 99.8486 70.8975C99.4977 70.738 99.2197 70.4964 99.0146 70.1729C98.8141 69.8493 98.7139 69.4391 98.7139 68.9424C98.7139 68.195 99.0101 67.6208 99.6025 67.2197C100.195 66.8187 101.097 66.5999 102.31 66.5635L103.602 66.5088V66.0508C103.602 65.4036 103.463 64.9502 103.185 64.6904C102.907 64.4307 102.515 64.3008 102.009 64.3008C101.617 64.3008 101.243 64.3577 100.888 64.4717C100.532 64.5856 100.195 64.7201 99.876 64.875L99.5273 64.0137C99.8646 63.8405 100.252 63.6924 100.689 63.5693C101.127 63.4463 101.587 63.3848 102.07 63.3848ZM103.588 67.3086L102.446 67.3564C101.512 67.3929 100.854 67.5456 100.471 67.8145C100.088 68.0833 99.8965 68.4639 99.8965 68.9561C99.8965 69.3844 100.026 69.7012 100.286 69.9062C100.546 70.1113 100.89 70.2139 101.318 70.2139C101.984 70.2139 102.528 70.0293 102.952 69.6602C103.376 69.291 103.588 68.7373 103.588 67.999V67.3086ZM108.694 71L105.851 63.5078H107.067L108.715 68.04C108.829 68.3499 108.945 68.6917 109.063 69.0654C109.182 69.4391 109.264 69.7399 109.31 69.9678H109.357C109.412 69.7399 109.503 69.4391 109.631 69.0654C109.758 68.6872 109.875 68.3454 109.979 68.04L111.627 63.5078H112.844L109.993 71H108.694ZM115.182 63.5078V71H114.047V63.5078H115.182ZM114.628 60.7051C114.815 60.7051 114.974 60.7666 115.106 60.8896C115.243 61.0081 115.312 61.195 115.312 61.4502C115.312 61.7008 115.243 61.8877 115.106 62.0107C114.974 62.1338 114.815 62.1953 114.628 62.1953C114.432 62.1953 114.268 62.1338 114.136 62.0107C114.008 61.8877 113.944 61.7008 113.944 61.4502C113.944 61.195 114.008 61.0081 114.136 60.8896C114.268 60.7666 114.432 60.7051 114.628 60.7051ZM121.136 63.3711C122.024 63.3711 122.697 63.5898 123.152 64.0273C123.608 64.4603 123.836 65.1576 123.836 66.1191V71H122.715V66.1943C122.715 65.57 122.571 65.1029 122.284 64.793C122.002 64.4831 121.566 64.3281 120.979 64.3281C120.149 64.3281 119.566 64.5628 119.229 65.0322C118.891 65.5016 118.723 66.1829 118.723 67.0762V71H117.588V63.5078H118.504L118.675 64.5879H118.736C118.896 64.3236 119.099 64.1025 119.345 63.9248C119.591 63.7425 119.867 63.6058 120.172 63.5146C120.477 63.4189 120.799 63.3711 121.136 63.3711ZM128.266 74.3633C127.281 74.3633 126.522 74.1787 125.989 73.8096C125.456 73.445 125.189 72.9323 125.189 72.2715C125.189 71.8021 125.338 71.401 125.634 71.0684C125.935 70.7357 126.349 70.5146 126.878 70.4053C126.682 70.3141 126.513 70.1774 126.372 69.9951C126.235 69.8128 126.167 69.6032 126.167 69.3662C126.167 69.0928 126.242 68.8535 126.393 68.6484C126.548 68.4388 126.782 68.2383 127.097 68.0469C126.705 67.8874 126.386 67.6185 126.14 67.2402C125.898 66.8574 125.777 66.4131 125.777 65.9072C125.777 65.3695 125.889 64.9115 126.112 64.5332C126.336 64.1504 126.659 63.8587 127.083 63.6582C127.507 63.4577 128.02 63.3574 128.621 63.3574C128.753 63.3574 128.885 63.3643 129.018 63.3779C129.154 63.387 129.284 63.403 129.407 63.4258C129.53 63.444 129.637 63.4668 129.729 63.4941H132.299V64.2256L130.918 64.3965C131.055 64.5742 131.169 64.7884 131.26 65.0391C131.351 65.2897 131.396 65.5677 131.396 65.873C131.396 66.6204 131.144 67.2152 130.638 67.6572C130.132 68.0947 129.437 68.3135 128.553 68.3135C128.343 68.3135 128.129 68.2952 127.91 68.2588C127.687 68.3818 127.516 68.5186 127.397 68.6689C127.284 68.8193 127.227 68.9925 127.227 69.1885C127.227 69.3343 127.27 69.4505 127.356 69.5371C127.448 69.6237 127.577 69.6875 127.746 69.7285C127.915 69.765 128.118 69.7832 128.354 69.7832H129.674C130.49 69.7832 131.114 69.9541 131.547 70.2959C131.984 70.6377 132.203 71.1367 132.203 71.793C132.203 72.6224 131.866 73.2581 131.191 73.7002C130.517 74.1423 129.542 74.3633 128.266 74.3633ZM128.3 73.4746C128.92 73.4746 129.432 73.4108 129.838 73.2832C130.248 73.1602 130.553 72.9801 130.754 72.7432C130.959 72.5107 131.062 72.2327 131.062 71.9092C131.062 71.6084 130.993 71.3805 130.856 71.2256C130.72 71.0752 130.519 70.9749 130.255 70.9248C129.991 70.8701 129.667 70.8428 129.284 70.8428H127.985C127.648 70.8428 127.354 70.8952 127.104 71C126.853 71.1048 126.659 71.2598 126.522 71.4648C126.39 71.6699 126.324 71.9251 126.324 72.2305C126.324 72.6361 126.495 72.9437 126.837 73.1533C127.179 73.3675 127.666 73.4746 128.3 73.4746ZM128.594 67.4863C129.136 67.4863 129.544 67.3496 129.817 67.0762C130.091 66.8027 130.228 66.404 130.228 65.8799C130.228 65.3193 130.089 64.9001 129.811 64.6221C129.533 64.3395 129.122 64.1982 128.58 64.1982C128.061 64.1982 127.66 64.3441 127.377 64.6357C127.099 64.9229 126.96 65.3444 126.96 65.9004C126.96 66.4108 127.101 66.8027 127.384 67.0762C127.666 67.3496 128.07 67.4863 128.594 67.4863ZM133.604 70.2891C133.604 69.9701 133.682 69.7445 133.837 69.6123C133.992 69.4756 134.181 69.4072 134.404 69.4072C134.637 69.4072 134.833 69.4756 134.992 69.6123C135.152 69.7445 135.231 69.9701 135.231 70.2891C135.231 70.6035 135.152 70.8337 134.992 70.9795C134.833 71.1208 134.637 71.1914 134.404 71.1914C134.181 71.1914 133.992 71.1208 133.837 70.9795C133.682 70.8337 133.604 70.6035 133.604 70.2891ZM137.282 70.2891C137.282 69.9701 137.36 69.7445 137.515 69.6123C137.67 69.4756 137.859 69.4072 138.082 69.4072C138.314 69.4072 138.51 69.4756 138.67 69.6123C138.829 69.7445 138.909 69.9701 138.909 70.2891C138.909 70.6035 138.829 70.8337 138.67 70.9795C138.51 71.1208 138.314 71.1914 138.082 71.1914C137.859 71.1914 137.67 71.1208 137.515 70.9795C137.36 70.8337 137.282 70.6035 137.282 70.2891ZM140.96 70.2891C140.96 69.9701 141.037 69.7445 141.192 69.6123C141.347 69.4756 141.536 69.4072 141.76 69.4072C141.992 69.4072 142.188 69.4756 142.348 69.6123C142.507 69.7445 142.587 69.9701 142.587 70.2891C142.587 70.6035 142.507 70.8337 142.348 70.9795C142.188 71.1208 141.992 71.1914 141.76 71.1914C141.536 71.1914 141.347 71.1208 141.192 70.9795C141.037 70.8337 140.96 70.6035 140.96 70.2891Z" fill="white"/>
</svg>
