<svg width="14" height="14" viewBox="0 0 14 14" fill="none" xmlns="http://www.w3.org/2000/svg">
<path fill-rule="evenodd" clip-rule="evenodd" d="M6.41699 4.66669C6.41699 4.34469 6.67833 4.08335 7.00033 4.08335C7.32233 4.08335 7.58366 4.34469 7.58366 4.66669C7.58366 4.98869 7.32233 5.25002 7.00033 5.25002C6.67833 5.25002 6.41699 4.98869 6.41699 4.66669ZM6.41699 6.41669C6.41699 6.09469 6.67833 5.83335 7.00033 5.83335C7.32233 5.83335 7.58366 6.09469 7.58366 6.41669V9.33335C7.58366 9.65535 7.32233 9.91669 7.00033 9.91669C6.67833 9.91669 6.41699 9.65535 6.41699 9.33335V6.41669ZM7.00032 11.6667C4.42724 11.6667 2.33366 9.5731 2.33366 7.00002C2.33366 4.42694 4.42724 2.33335 7.00032 2.33335C9.57341 2.33335 11.667 4.42694 11.667 7.00002C11.667 9.5731 9.57341 11.6667 7.00032 11.6667M7.00033 1.16669C3.77858 1.16669 1.16699 3.77827 1.16699 7.00002C1.16699 10.2218 3.77858 12.8334 7.00033 12.8334C10.2215 12.8334 12.8337 10.2218 12.8337 7.00002C12.8337 3.77827 10.2215 1.16669 7.00033 1.16669" fill="#FF4949"/>
<mask id="mask0_4195_17713" style="mask-type:luminance" maskUnits="userSpaceOnUse" x="1" y="1" width="12" height="12">
<path fill-rule="evenodd" clip-rule="evenodd" d="M6.41699 4.66669C6.41699 4.34469 6.67833 4.08335 7.00033 4.08335C7.32233 4.08335 7.58366 4.34469 7.58366 4.66669C7.58366 4.98869 7.32233 5.25002 7.00033 5.25002C6.67833 5.25002 6.41699 4.98869 6.41699 4.66669ZM6.41699 6.41669C6.41699 6.09469 6.67833 5.83335 7.00033 5.83335C7.32233 5.83335 7.58366 6.09469 7.58366 6.41669V9.33335C7.58366 9.65535 7.32233 9.91669 7.00033 9.91669C6.67833 9.91669 6.41699 9.65535 6.41699 9.33335V6.41669ZM7.00032 11.6667C4.42724 11.6667 2.33366 9.5731 2.33366 7.00002C2.33366 4.42694 4.42724 2.33335 7.00032 2.33335C9.57341 2.33335 11.667 4.42694 11.667 7.00002C11.667 9.5731 9.57341 11.6667 7.00032 11.6667M7.00033 1.16669C3.77858 1.16669 1.16699 3.77827 1.16699 7.00002C1.16699 10.2218 3.77858 12.8334 7.00033 12.8334C10.2215 12.8334 12.8337 10.2218 12.8337 7.00002C12.8337 3.77827 10.2215 1.16669 7.00033 1.16669" fill="white"/>
</mask>
<g mask="url(#mask0_4195_17713)">
</g>
</svg>
