<svg width="21" height="21" viewBox="0 0 21 21" fill="none" xmlns="http://www.w3.org/2000/svg">
<path d="M8.54735 1.80426C8.18498 2.29538 7.55034 2.50159 6.9685 2.31726C5.41117 1.8239 3.82107 2.97917 3.80904 4.61274C3.80455 5.22306 3.41232 5.76292 2.83327 5.95579C1.28336 6.47203 0.676 8.3413 1.62646 9.66995C1.98156 10.1663 1.98156 10.8337 1.62646 11.33C0.676 12.6587 1.28336 14.528 2.83327 15.0442C3.41232 15.2371 3.80455 15.7769 3.80904 16.3873C3.82107 18.0208 5.41117 19.1761 6.9685 18.6827C7.55034 18.4984 8.18498 18.7046 8.54735 19.1957C9.51727 20.5103 11.4827 20.5103 12.4527 19.1957C12.815 18.7046 13.4497 18.4984 14.0315 18.6827C15.5888 19.1761 17.1789 18.0208 17.191 16.3873C17.1954 15.7769 17.5877 15.2371 18.1667 15.0442C19.7166 14.528 20.324 12.6587 19.3735 11.33C19.0184 10.8337 19.0184 10.1663 19.3735 9.66995C20.324 8.3413 19.7166 6.47203 18.1667 5.95579C17.5877 5.76292 17.1954 5.22306 17.191 4.61274C17.1789 2.97917 15.5888 1.8239 14.0315 2.31726C13.4497 2.50159 12.815 2.29538 12.4527 1.80426C11.4827 0.489744 9.51727 0.489744 8.54735 1.80426Z" fill="#20D231" stroke="#FAFBFF"/>
<path d="M10.5077 5.11438C7.53374 5.11438 5.12305 7.52507 5.12305 10.499C5.12305 13.4729 7.53374 15.8836 10.5077 15.8836C13.4816 15.8836 15.8923 13.4729 15.8923 10.499C15.8923 7.52507 13.4816 5.11438 10.5077 5.11438ZM12.6615 8.88361C12.7994 8.88361 12.9431 8.92992 13.0487 9.03492C13.2587 9.24545 13.2587 9.59868 13.0487 9.80922L11.0294 11.8117C10.4097 12.431 9.46251 12.3384 8.97628 11.6093L8.43782 10.8016C8.27305 10.5545 8.34196 10.2098 8.58966 10.0445C8.83681 9.87976 9.18143 9.94867 9.34674 10.1964L9.8852 11.0041C9.99397 11.1672 10.1334 11.1931 10.2718 11.0541L12.2744 9.03492C12.3799 8.92992 12.5237 8.88361 12.6615 8.88361Z" fill="white"/>
</svg>
