<svg width="16" height="16" viewBox="0 0 16 16" fill="none" xmlns="http://www.w3.org/2000/svg">
<path d="M2.66667 13.9999C2.3 13.9999 1.98611 13.8694 1.725 13.6083C1.46389 13.3471 1.33334 13.0333 1.33334 12.6666V5.33325C1.33334 4.96659 1.46389 4.6527 1.725 4.39159C1.98611 4.13047 2.3 3.99992 2.66667 3.99992H5.33334V2.66659C5.33334 2.29992 5.46389 1.98603 5.725 1.72492C5.98611 1.46381 6.3 1.33325 6.66667 1.33325H9.33334C9.7 1.33325 10.0139 1.46381 10.275 1.72492C10.5361 1.98603 10.6667 2.29992 10.6667 2.66659V3.99992H13.3333C13.7 3.99992 14.0139 4.13047 14.275 4.39159C14.5361 4.6527 14.6667 4.96659 14.6667 5.33325V12.6666C14.6667 13.0333 14.5361 13.3471 14.275 13.6083C14.0139 13.8694 13.7 13.9999 13.3333 13.9999H2.66667ZM2.66667 12.6666H13.3333V5.33325H2.66667V12.6666ZM6.66667 3.99992H9.33334V2.66659H6.66667V3.99992Z" fill="#FF7B1C"/>
</svg>
